{
 "cells": [
  {
   "cell_type": "code",
   "execution_count": 1,
   "id": "55708dfe",
   "metadata": {},
   "outputs": [
    {
     "name": "stderr",
     "output_type": "stream",
     "text": [
      "c:\\Users\\georg\\AppData\\Local\\Programs\\Python\\Python311\\Lib\\site-packages\\tqdm\\auto.py:21: TqdmWarning: IProgress not found. Please update jupyter and ipywidgets. See https://ipywidgets.readthedocs.io/en/stable/user_install.html\n",
      "  from .autonotebook import tqdm as notebook_tqdm\n"
     ]
    }
   ],
   "source": [
    "from transformers import AutoTokenizer, AutoModelForCausalLM\n",
    "import torch\n",
    "import bitsandbytes\n",
    "from PIL import Image\n",
    "from IPython.display import display\n",
    "from pathlib import Path\n",
    "import unicodedata\n",
    "import sys\n",
    "import torch\n",
    "import open_clip\n",
    "import chromadb\n",
    "import re\n",
    "import os\n",
    "import numpy as np\n",
    "import subprocess\n",
    "from PIL import Image\n",
    "from pocket_tts import TTSModel\n",
    "import scipy.io.wavfile\n",
    "from scipy.io import wavfile\n",
    "import soundfile as sf\n",
    "from datetime import timedelta\n",
    "\n",
    "from sqlalchemy.orm import Session\n",
    "from sqlalchemy import text\n",
    "\n",
    "import boto3\n",
    "from dotenv import load_dotenv\n",
    "from concurrent.futures import ThreadPoolExecutor\n",
    "import pillow_avif\n",
    "import shutil"
   ]
  },
  {
   "cell_type": "code",
   "execution_count": 2,
   "id": "cf9b22f2",
   "metadata": {},
   "outputs": [],
   "source": [
    "root = Path.cwd()\n",
    "while not (root / \"src\").exists():\n",
    "    root = root.parent\n",
    "\n",
    "sys.path.append(str(root))\n",
    "from src.db.session import engine\n",
    "from src.models import Pharaoh"
   ]
  },
  {
   "cell_type": "code",
   "execution_count": 3,
   "id": "7a6c56bf",
   "metadata": {},
   "outputs": [
    {
     "name": "stdout",
     "output_type": "stream",
     "text": [
      "Wed Mar 18 17:31:53 2026       \n",
      "+-----------------------------------------------------------------------------------------+\n",
      "| NVIDIA-SMI 591.86                 Driver Version: 591.86         CUDA Version: 13.1     |\n",
      "+-----------------------------------------+------------------------+----------------------+\n",
      "| GPU  Name                  Driver-Model | Bus-Id          Disp.A | Volatile Uncorr. ECC |\n",
      "| Fan  Temp   Perf          Pwr:Usage/Cap |           Memory-Usage | GPU-Util  Compute M. |\n",
      "|                                         |                        |               MIG M. |\n",
      "|=========================================+========================+======================|\n",
      "|   0  NVIDIA GeForce RTX 3060 ...  WDDM  |   00000000:01:00.0 Off |                  N/A |\n",
      "| N/A   43C    P0             25W /   85W |     101MiB /   6144MiB |      0%      Default |\n",
      "|                                         |                        |                  N/A |\n",
      "+-----------------------------------------+------------------------+----------------------+\n",
      "\n",
      "+-----------------------------------------------------------------------------------------+\n",
      "| Processes:                                                                              |\n",
      "|  GPU   GI   CI              PID   Type   Process name                        GPU Memory |\n",
      "|        ID   ID                                                               Usage      |\n",
      "|=========================================================================================|\n",
      "|    0   N/A  N/A           18688    C+G   ...ms\\Microsoft VS Code\\Code.exe      N/A      |\n",
      "+-----------------------------------------------------------------------------------------+\n"
     ]
    }
   ],
   "source": [
    "!nvidia-smi"
   ]
  },
  {
   "cell_type": "code",
   "execution_count": 4,
   "id": "5ca5b110",
   "metadata": {},
   "outputs": [
    {
     "data": {
      "text/plain": [
       "CLIP(\n",
       "  (visual): VisionTransformer(\n",
       "    (conv1): Conv2d(3, 1280, kernel_size=(14, 14), stride=(14, 14), bias=False)\n",
       "    (patch_dropout): Identity()\n",
       "    (ln_pre): LayerNorm((1280,), eps=1e-05, elementwise_affine=True)\n",
       "    (transformer): Transformer(\n",
       "      (resblocks): ModuleList(\n",
       "        (0-31): 32 x ResidualAttentionBlock(\n",
       "          (ln_1): LayerNorm((1280,), eps=1e-05, elementwise_affine=True)\n",
       "          (attn): MultiheadAttention(\n",
       "            (out_proj): NonDynamicallyQuantizableLinear(in_features=1280, out_features=1280, bias=True)\n",
       "          )\n",
       "          (ls_1): Identity()\n",
       "          (ln_2): LayerNorm((1280,), eps=1e-05, elementwise_affine=True)\n",
       "          (mlp): Sequential(\n",
       "            (c_fc): Linear(in_features=1280, out_features=5120, bias=True)\n",
       "            (gelu): GELU(approximate='none')\n",
       "            (c_proj): Linear(in_features=5120, out_features=1280, bias=True)\n",
       "          )\n",
       "          (ls_2): Identity()\n",
       "        )\n",
       "      )\n",
       "    )\n",
       "    (ln_post): LayerNorm((1280,), eps=1e-05, elementwise_affine=True)\n",
       "  )\n",
       "  (transformer): Transformer(\n",
       "    (resblocks): ModuleList(\n",
       "      (0-23): 24 x ResidualAttentionBlock(\n",
       "        (ln_1): LayerNorm((1024,), eps=1e-05, elementwise_affine=True)\n",
       "        (attn): MultiheadAttention(\n",
       "          (out_proj): NonDynamicallyQuantizableLinear(in_features=1024, out_features=1024, bias=True)\n",
       "        )\n",
       "        (ls_1): Identity()\n",
       "        (ln_2): LayerNorm((1024,), eps=1e-05, elementwise_affine=True)\n",
       "        (mlp): Sequential(\n",
       "          (c_fc): Linear(in_features=1024, out_features=4096, bias=True)\n",
       "          (gelu): GELU(approximate='none')\n",
       "          (c_proj): Linear(in_features=4096, out_features=1024, bias=True)\n",
       "        )\n",
       "        (ls_2): Identity()\n",
       "      )\n",
       "    )\n",
       "  )\n",
       "  (token_embedding): Embedding(49408, 1024)\n",
       "  (ln_final): LayerNorm((1024,), eps=1e-05, elementwise_affine=True)\n",
       ")"
      ]
     },
     "execution_count": 4,
     "metadata": {},
     "output_type": "execute_result"
    }
   ],
   "source": [
    "device = \"cuda\" if torch.cuda.is_available() else \"cpu\"\n",
    "\n",
    "model, preprocess, tokenizer = open_clip.create_model_and_transforms(\n",
    "    \"ViT-H-14\",\n",
    "    pretrained=\"laion2b_s32b_b79k\"\n",
    ")\n",
    "model = model.to(device)\n",
    "model.eval()"
   ]
  },
  {
   "cell_type": "code",
   "execution_count": 5,
   "id": "db79c5c4",
   "metadata": {},
   "outputs": [
    {
     "name": "stdout",
     "output_type": "stream",
     "text": [
      "In ancient Egypt, the mysterious god Set ruled with power and chaos. Worshipped since before recorded history, he was associated with storms, eclipses, thunderstorms, earthquakes, and the desert—making him both strong and unpredictable. His violent birth story, where he ripped himself from his mother's womb instead of being born normally, symbolized his chaotic nature.\n",
      "\n",
      "Set held the was-sceptre and wore the Set animal as symbols, yet despite marriage to Nephthys, remained childless—a strange figure in the Egyptian pantheon. However, during some periods, Seth became one of Egypt’s great gods. His name appeared on Pharaohs like Seti I and II, who promoted him as a protector of Re, slaying Apopis with fierce power.\n",
      "\n",
      "Yet not everyone saw his strength positively. During the Second Intermediate Period, he was associated with evil forces like the Hyksos invaders, who linked him to their storm god Baal. This perception persisted through Greek and Roman times, casting Set as an evil deity.\n",
      "\n",
      "Set's legacy endures as a symbol of both power and danger, reminding us that even in ancient Egypt, gods were not always seen for what they truly are.\n",
      "\n"
     ]
    }
   ],
   "source": [
    "NAME = \"Seth (God)\"\n",
    "is_landmark = False\n",
    "if is_landmark:\n",
    "    with Session(engine) as session:\n",
    "        result = session.execute(text(\"SELECT landmark_script FROM landmarks_scripts as ls, landmarks as l WHERE ls.landmark_id = l.id AND l.name = :name\"), {\"name\": NAME})\n",
    "        script = result.fetchall()[0][0]\n",
    "\n",
    "else:\n",
    "    with Session(engine) as session:\n",
    "        result = session.execute(text(\"SELECT pharaoh_script FROM pharaohs_scripts as ps, pharaohs as p WHERE ps.pharaoh_id = p.id AND p.name = :name\"), {\"name\": NAME})\n",
    "        script = result.fetchall()[0][0]\n",
    "\n",
    "print(script)"
   ]
  },
  {
   "cell_type": "code",
   "execution_count": 6,
   "id": "28891b06",
   "metadata": {},
   "outputs": [
    {
     "data": {
      "text/plain": [
       "[\"In ancient Egypt, the mysterious god Set ruled with power and chaos. Worshipped since before recorded history, he was associated with storms, eclipses, thunderstorms, earthquakes, and the desert—making him both strong and unpredictable. His violent birth story, where he ripped himself from his mother's womb instead of being born normally, symbolized his chaotic nature.\",\n",
       " 'Set held the was-sceptre and wore the Set animal as symbols, yet despite marriage to Nephthys, remained childless—a strange figure in the Egyptian pantheon. However, during some periods, Seth became one of Egypt’s great gods. His name appeared on Pharaohs like Seti I and II, who promoted him as a protector of Re, slaying Apopis with fierce power.',\n",
       " 'Yet not everyone saw his strength positively. During the Second Intermediate Period, he was associated with evil forces like the Hyksos invaders, who linked him to their storm god Baal. This perception persisted through Greek and Roman times, casting Set as an evil deity.',\n",
       " \"Set's legacy endures as a symbol of both power and danger, reminding us that even in ancient Egypt, gods were not always seen for what they truly are.\"]"
      ]
     },
     "execution_count": 6,
     "metadata": {},
     "output_type": "execute_result"
    }
   ],
   "source": [
    "paragraphs = [p.strip() for p in re.split(r'\\n\\s*\\n', script) if p.strip()]\n",
    "paragraphs"
   ]
  },
  {
   "cell_type": "code",
   "execution_count": 10,
   "id": "bbe9e8d1",
   "metadata": {},
   "outputs": [
    {
     "data": {
      "text/plain": [
       "[['In ancient Egypt, the mysterious god Set ruled with power and chaos.',\n",
       "  'Worshipped since before recorded history, he was associated with storms, eclipses, thunderstorms, earthquakes, and the desert—making him both strong and unpredictable.',\n",
       "  \"His violent birth story, where he ripped himself from his mother's womb instead of being born normally, symbolized his chaotic nature.\"],\n",
       " ['Set held the was-sceptre and wore the Set animal as symbols, yet despite marriage to Nephthys, remained childless—a strange figure in the Egyptian pantheon.',\n",
       "  'However, during some periods, Seth became one of Egypt’s great gods.',\n",
       "  'His name appeared on Pharaohs like Seti I and II, who promoted him as a protector of Re, slaying Apopis with fierce power.'],\n",
       " ['Yet not everyone saw his strength positively.',\n",
       "  'During the Second Intermediate Period, he was associated with evil forces like the Hyksos invaders, who linked him to their storm god Baal.',\n",
       "  'This perception persisted through Greek and Roman times, casting Set as an evil deity.'],\n",
       " [\"Set's legacy endures as a symbol of both power and danger, reminding us that even in ancient Egypt, gods were not always seen for what they truly are.\"]]"
      ]
     },
     "execution_count": 10,
     "metadata": {},
     "output_type": "execute_result"
    }
   ],
   "source": [
    "sentences = []\n",
    "sentences_per_paragraph = []\n",
    "for p in paragraphs:\n",
    "    sentences.append([s.strip() for s in re.split(r'(?<=[.!?]) +', p) if s.strip()])\n",
    "    sentences_per_paragraph.append(len(sentences[-1]))\n",
    "sentences"
   ]
  },
  {
   "cell_type": "code",
   "execution_count": 11,
   "id": "afaa97be",
   "metadata": {},
   "outputs": [],
   "source": [
    "#Text-to-Speech\n",
    "tts_model = TTSModel.load_model()\n",
    "voice_state = tts_model.get_state_for_audio_prompt(\"alba\")\n",
    "\n",
    "i = 0\n",
    "for p in sentences:\n",
    "    for s in p:\n",
    "        audio = tts_model.generate_audio(voice_state, s)\n",
    "        scipy.io.wavfile.write(f\"Outputs\\\\output_{i}.wav\", tts_model.sample_rate, audio.numpy())\n",
    "        i += 1"
   ]
  },
  {
   "cell_type": "code",
   "execution_count": 12,
   "id": "ef92161e",
   "metadata": {},
   "outputs": [
    {
     "name": "stdout",
     "output_type": "stream",
     "text": [
      "['output_0.wav', 'output_1.wav', 'output_2.wav', 'output_3.wav', 'output_4.wav', 'output_5.wav', 'output_6.wav', 'output_7.wav', 'output_8.wav', 'output_9.wav']\n"
     ]
    }
   ],
   "source": [
    "wav_files = sorted([f for f in os.listdir(\"Outputs\") if f.endswith('.wav')])\n",
    "print(wav_files)\n",
    "\n",
    "audio_data = []\n",
    "seconds_per_paragraph = []\n",
    "samplerate = None\n",
    "\n",
    "for i in range(len(wav_files)):\n",
    "    file_name = f\"Outputs\\\\output_{i}.wav\"\n",
    "    \n",
    "    data, sr = sf.read(file_name)\n",
    "    \n",
    "    if samplerate is None:\n",
    "        samplerate = sr\n",
    "    elif sr != samplerate:\n",
    "        raise ValueError(\"Sample rates do not match!\")\n",
    "\n",
    "    audio_data.append(data)\n",
    "\n",
    "# Concatenate along time axis\n",
    "combined = np.concatenate(audio_data, axis=0)\n",
    "\n",
    "# Write output (keeps float format safely)\n",
    "sf.write(\"Outputs\\\\Final audio.wav\", combined, samplerate)"
   ]
  },
  {
   "cell_type": "code",
   "execution_count": 13,
   "id": "dbad9840",
   "metadata": {},
   "outputs": [
    {
     "name": "stdout",
     "output_type": "stream",
     "text": [
      "Durations of audio files: [23.040000000000003, 21.040000000000003, 15.04, 8.32]\n",
      "Images needed for each paragraph: [3, 3, 2, 1]\n",
      "Durations of sentences: [4.8, 10.8, 7.44, 8.96, 4.64, 7.44, 2.32, 8.08, 4.64, 8.32]\n"
     ]
    }
   ],
   "source": [
    "durations = []\n",
    "sentences_durations = []\n",
    "images_needed = []\n",
    "#seconds = []\n",
    "i = 0\n",
    "for p in sentences:\n",
    "    duration_seconds = 0\n",
    "    for s in p:\n",
    "        file_path = f\"Outputs\\\\output_{i}.wav\"\n",
    "        # Returns the sample rate (Fs) and the data as a NumPy array\n",
    "        Fs, data = wavfile.read(file_path) \n",
    "        # The length of the data array divided by the sample rate gives the duration\n",
    "        sentence_duration = len(data) / float(Fs)\n",
    "        duration_seconds += sentence_duration\n",
    "        sentences_durations.append(sentence_duration)\n",
    "        i += 1\n",
    "        os.remove(file_path)\n",
    "    durations.append(duration_seconds)\n",
    "    images_needed.append(max(1, int(duration_seconds / 6)))\n",
    "    '''    section_seconds = duration_seconds / images_needed[-1]\n",
    "    for img in range(images_needed[-1]):\n",
    "        seconds.append(section_seconds)'''\n",
    "\n",
    "\n",
    "print(f\"Durations of audio files: {durations}\")\n",
    "print(f\"Images needed for each paragraph: {images_needed}\")\n",
    "print(f\"Durations of sentences: {sentences_durations}\")\n",
    "#print(f\"Seconds for each image: {seconds}\")"
   ]
  },
  {
   "cell_type": "code",
   "execution_count": 14,
   "id": "cc84311e",
   "metadata": {},
   "outputs": [
    {
     "name": "stdout",
     "output_type": "stream",
     "text": [
      "Text chunks for images: [['In ancient Egypt, the mysterious god Set ruled with power and chaos.', 'Worshipped since before recorded history, he was associated with storms, eclipses, thunderstorms, earthquakes, and the desert—making him both strong and unpredictable.', \"His violent birth story, where he ripped himself from his mother's womb instead of being born normally, symbolized his chaotic nature.\"], ['Set held the was-sceptre and wore the Set animal as symbols, yet despite marriage to Nephthys, remained childless—a strange figure in the Egyptian pantheon.', 'However, during some periods, Seth became one of Egypt’s great gods.', 'His name appeared on Pharaohs like Seti I and II, who promoted him as a protector of Re, slaying Apopis with fierce power.'], ['Yet not everyone saw his strength positively. During the Second Intermediate Period, he was associated with evil forces like the Hyksos invaders, who linked him to their storm god Baal.', 'This perception persisted through Greek and Roman times, casting Set as an evil deity.'], [\"Set's legacy endures as a symbol of both power and danger, reminding us that even in ancient Egypt, gods were not always seen for what they truly are.\"]]\n",
      "Seconds for each chunk: [4.8, 10.8, 7.44, 8.96, 4.64, 7.44, 10.4, 4.64, 8.32]\n"
     ]
    }
   ],
   "source": [
    "i = 0\n",
    "sentence_start = 0\n",
    "sentence_end = 0\n",
    "image_text_chunks = []\n",
    "seconds_for_chunk = []\n",
    "\n",
    "# Use the already-split sentences from the first pass (list of lists)\n",
    "for para_idx, para_sentences in enumerate(sentences_per_paragraph):\n",
    "    # sentences_split is your original `sentences` list of lists\n",
    "    para_sentence_list = sentences[para_idx]\n",
    "    images_for_paragraph = images_needed[para_idx]\n",
    "    images_for_paragraph = min(images_for_paragraph, len(para_sentence_list))\n",
    "\n",
    "    total_sentences = len(para_sentence_list)\n",
    "    base = total_sentences // images_for_paragraph\n",
    "    remainder = total_sentences % images_for_paragraph\n",
    "\n",
    "    groups = []\n",
    "    start = 0\n",
    "    for img_idx in range(images_for_paragraph):\n",
    "        extra = 1 if img_idx < remainder else 0\n",
    "        end = start + base + extra\n",
    "\n",
    "        chunk_sentence_end = sentence_start + end  # absolute index into sentences_durations\n",
    "        chunk_duration = sum(sentences_durations[sentence_start + start : sentence_start + end])\n",
    "        seconds_for_chunk.append(chunk_duration)\n",
    "\n",
    "        chunk = \" \".join(para_sentence_list[start:end])\n",
    "        groups.append(chunk)\n",
    "\n",
    "        start = end\n",
    "\n",
    "    sentence_start += total_sentences  # advance global pointer by paragraph's sentence count\n",
    "    image_text_chunks.append(groups)\n",
    "\n",
    "print(f\"Text chunks for images: {image_text_chunks}\")\n",
    "print(f\"Seconds for each chunk: {seconds_for_chunk}\")"
   ]
  },
  {
   "cell_type": "code",
   "execution_count": 15,
   "id": "16aec434",
   "metadata": {},
   "outputs": [
    {
     "name": "stdout",
     "output_type": "stream",
     "text": [
      "Text chunk: In ancient Egypt, the mysterious god Set ruled with power and chaos.\n",
      "Image ID: 757 on trial 0\n",
      "image path: data/video_generation/raw/pharaohs_images/Seth (God)/Seth god.jpg\n",
      "Text chunk: Worshipped since before recorded history, he was associated with storms, eclipses, thunderstorms, earthquakes, and the desert—making him both strong and unpredictable.\n",
      "Image ID: 760 on trial 1\n",
      "image path: data/video_generation/raw/pharaohs_images/Seth (God)/Statue 2 angle 2.jpg\n",
      "Text chunk: His violent birth story, where he ripped himself from his mother's womb instead of being born normally, symbolized his chaotic nature.\n",
      "Image ID: 764 on trial 0\n",
      "image path: data/video_generation/raw/pharaohs_images/Seth (God)/seth god of violence and chaos.jpg\n",
      "Text chunk: Set held the was-sceptre and wore the Set animal as symbols, yet despite marriage to Nephthys, remained childless—a strange figure in the Egyptian pantheon.\n",
      "Image ID: 753 on trial 1\n",
      "image path: data/video_generation/raw/pharaohs_images/Seth (God)/Horus spears Set.jpg\n",
      "Text chunk: However, during some periods, Seth became one of Egypt’s great gods.\n",
      "Image ID: 765 on trial 2\n",
      "image path: data/video_generation/raw/pharaohs_images/Seth (God)/seth.jpg\n",
      "Text chunk: His name appeared on Pharaohs like Seti I and II, who promoted him as a protector of Re, slaying Apopis with fierce power.\n",
      "Image ID: 758 on trial 3\n",
      "image path: data/video_generation/raw/pharaohs_images/Seth (God)/Statue 1 angle 2.jpg\n",
      "Text chunk: Yet not everyone saw his strength positively. During the Second Intermediate Period, he was associated with evil forces like the Hyksos invaders, who linked him to their storm god Baal.\n",
      "Image ID: 756 on trial 3\n",
      "image path: data/video_generation/raw/pharaohs_images/Seth (God)/Seth and Nephthis.jpg\n",
      "Text chunk: This perception persisted through Greek and Roman times, casting Set as an evil deity.\n",
      "Image ID: 759 on trial 6\n",
      "image path: data/video_generation/raw/pharaohs_images/Seth (God)/Statue 1.jpg\n",
      "Text chunk: Set's legacy endures as a symbol of both power and danger, reminding us that even in ancient Egypt, gods were not always seen for what they truly are.\n",
      "Image ID: 752 on trial 5\n",
      "image path: data/video_generation/raw/pharaohs_images/Seth (God)/Horus defeating Seth.jpg\n"
     ]
    }
   ],
   "source": [
    "#name = Path(script_path).stem\n",
    "fetched_images_ids = []\n",
    "fetched_images_paths = []\n",
    "for paragraph_chunks in image_text_chunks:\n",
    "    for chunk in paragraph_chunks:\n",
    "        text_tokens = open_clip.get_tokenizer()([chunk]).to(device)\n",
    "    \n",
    "        with torch.no_grad():\n",
    "            text_embedding = model.encode_text(text_tokens)\n",
    "            text_embedding /= text_embedding.norm(dim=-1, keepdim=True)\n",
    "\n",
    "        embedding_list = text_embedding.cpu().numpy().tolist()[0]\n",
    "        if is_landmark:\n",
    "            query = \"SELECT li.id, li.image_path FROM landmark_images as li JOIN landmarks as l ON li.landmark_id = l.id WHERE l.name = :name ORDER BY image_embedding <=> CAST(:embedding AS vector)\"\n",
    "        else:\n",
    "            query = \"SELECT pi.id, pi.image_path FROM pharaohs_images as pi JOIN pharaohs as p ON pi.pharaoh_id = p.id where p.name = :name ORDER BY image_embedding <=> CAST(:embedding AS vector)\"\n",
    "\n",
    "\n",
    "        \n",
    "        with Session(engine) as session:\n",
    "            result = session.execute(text(query), {\"name\": NAME, \"embedding\": embedding_list})\n",
    "            images = result.fetchall()\n",
    "            image_id = images[0][0]\n",
    "            image_path = images[0][1]\n",
    "\n",
    "            j = 0\n",
    "            while image_id in fetched_images_ids:\n",
    "                images.pop(0)\n",
    "                if not images:\n",
    "                    print(\"No more unique images available for this chunk.\")\n",
    "                    image_id = None\n",
    "                    break\n",
    "                image_id = images[0][0]\n",
    "                image_path = images[0][1]\n",
    "                j +=1\n",
    "            fetched_images_ids.append(image_id)\n",
    "            fetched_images_paths.append(image_path)\n",
    "\n",
    "            \n",
    "        print(f\"Text chunk: {chunk}\")\n",
    "        print(f\"Image ID: {image_id} on trial {j}\")\n",
    "        print(f\"image path: {image_path}\")"
   ]
  },
  {
   "cell_type": "code",
   "execution_count": 16,
   "id": "5fdac36e",
   "metadata": {},
   "outputs": [],
   "source": [
    "load_dotenv()\n",
    "\n",
    "ACCOUNT_ID = os.getenv(\"R2_ACCOUNT_ID\")\n",
    "ACCESS_KEY = os.getenv(\"R2_ACCESS_KEY\")\n",
    "SECRET_KEY = os.getenv(\"R2_SECRET_KEY\")\n",
    "BUCKET_NAME = os.getenv(\"R2_BUCKET_NAME\")\n",
    "\n",
    "session = boto3.session.Session()\n",
    "client = session.client(\n",
    "    \"s3\",\n",
    "    region_name=\"auto\",\n",
    "    endpoint_url=f\"https://{ACCOUNT_ID}.r2.cloudflarestorage.com\",\n",
    "    aws_access_key_id=ACCESS_KEY,\n",
    "    aws_secret_access_key=SECRET_KEY,\n",
    ")\n",
    "if is_landmark:\n",
    "    path = Path.joinpath(Path(\"data/video_generation/raw/landmark_images/\"), NAME.replace(\" \", \"_\").lower())\n",
    "else:\n",
    "    path = Path.joinpath(Path(\"data/video_generation/raw/pharaohs_images/\"), NAME.replace(\" \", \"_\").lower())\n",
    "REMOTE_PREFIX = path\n",
    "\n",
    "local_frames_dir = Path(\"temp_frames\")\n",
    "local_frames_dir.mkdir(exist_ok=True)\n",
    "\n",
    "ordered_local_paths = []\n",
    "\n",
    "def download_image(idx_key):\n",
    "    idx, image_key = idx_key\n",
    "    local_file = local_frames_dir / f\"{idx:04d}.jpg\"\n",
    "    client.download_file(BUCKET_NAME, image_key, str(local_file))\n",
    "    return str(local_file)\n",
    "\n",
    "with ThreadPoolExecutor(max_workers=8) as executor:\n",
    "    ordered_local_paths = list(\n",
    "        executor.map(download_image, enumerate(fetched_images_paths))\n",
    "    )"
   ]
  },
  {
   "cell_type": "code",
   "execution_count": 17,
   "id": "c56f50cc",
   "metadata": {},
   "outputs": [
    {
     "data": {
      "text/plain": [
       "[WindowsPath('temp_frames/0000.jpg'),\n",
       " WindowsPath('temp_frames/0001.jpg'),\n",
       " WindowsPath('temp_frames/0002.jpg'),\n",
       " WindowsPath('temp_frames/0003.jpg'),\n",
       " WindowsPath('temp_frames/0004.jpg'),\n",
       " WindowsPath('temp_frames/0005.jpg'),\n",
       " WindowsPath('temp_frames/0006.jpg'),\n",
       " WindowsPath('temp_frames/0007.jpg'),\n",
       " WindowsPath('temp_frames/0008.jpg')]"
      ]
     },
     "execution_count": 17,
     "metadata": {},
     "output_type": "execute_result"
    }
   ],
   "source": [
    "image_files = list(local_frames_dir.glob(\"*.jpg\")) + list(local_frames_dir.glob(\"*.jpeg\"))\n",
    "image_files"
   ]
  },
  {
   "cell_type": "code",
   "execution_count": 18,
   "id": "829dbebf",
   "metadata": {},
   "outputs": [
    {
     "name": "stdout",
     "output_type": "stream",
     "text": [
      "Converted: temp_frames\\0000.jpg\n",
      "Converted: temp_frames\\0001.jpg\n",
      "Converted: temp_frames\\0002.jpg\n",
      "Converted: temp_frames\\0003.jpg\n",
      "Converted: temp_frames\\0004.jpg\n",
      "Converted: temp_frames\\0005.jpg\n",
      "Converted: temp_frames\\0006.jpg\n",
      "Converted: temp_frames\\0007.jpg\n",
      "Converted: temp_frames\\0008.jpg\n"
     ]
    }
   ],
   "source": [
    "from PIL import Image as PILImage\n",
    "for path in image_files:\n",
    "    p = Path(path)\n",
    "    try:\n",
    "        with PILImage.open(p) as img:\n",
    "            img = img.convert(\"RGB\")  # handles AVIF, PNG, RGBA, etc.\n",
    "            img.save(p, \"JPEG\", quality=95)\n",
    "        print(f\"Converted: {p}\")\n",
    "    except Exception as e:\n",
    "        print(f\"Failed to convert {p}: {e}\")"
   ]
  },
  {
   "cell_type": "code",
   "execution_count": 19,
   "id": "e9515491",
   "metadata": {},
   "outputs": [
    {
     "name": "stdout",
     "output_type": "stream",
     "text": [
      "temp_frames\\0000.jpg 41668\n",
      "OK: JPEG (1100, 619)\n",
      "temp_frames\\0001.jpg 3412409\n",
      "OK: JPEG (2988, 5312)\n",
      "temp_frames\\0002.jpg 282568\n",
      "OK: JPEG (1000, 563)\n",
      "temp_frames\\0003.jpg 557564\n",
      "OK: JPEG (939, 1252)\n",
      "temp_frames\\0004.jpg 158802\n",
      "OK: JPEG (468, 626)\n",
      "temp_frames\\0005.jpg 171664\n",
      "OK: JPEG (792, 969)\n",
      "temp_frames\\0006.jpg 207682\n",
      "OK: JPEG (960, 960)\n",
      "temp_frames\\0007.jpg 215124\n",
      "OK: JPEG (1000, 667)\n",
      "temp_frames\\0008.jpg 458531\n",
      "OK: JPEG (1015, 679)\n"
     ]
    }
   ],
   "source": [
    "for img_path in Path(\"temp_frames\").glob(\"*.jpg\"):\n",
    "    print(img_path, img_path.stat().st_size)\n",
    "    try:\n",
    "        with Image.open(img_path) as im:\n",
    "            print(\"OK:\", im.format, im.size)\n",
    "    except Exception as e:\n",
    "        print(\"Broken image:\", e)"
   ]
  },
  {
   "cell_type": "code",
   "execution_count": 20,
   "id": "32e7ab2c",
   "metadata": {},
   "outputs": [
    {
     "data": {
      "text/plain": [
       "'\\n# ---------- MAIN FUNCTION ----------\\ndef generate_srt(paragraphs, durations, output_path=\"subtitles.srt\"):\\n    assert len(paragraphs) == len(durations), \"Paragraphs and durations must match\"\\n\\n    current_time = 0.0\\n    subtitle_index = 1\\n    srt_blocks = []\\n\\n    for paragraph, duration in zip(paragraphs, durations):\\n        paragraph = normalize_text(paragraph)\\n        sentences = split_into_sentences(paragraph)\\n\\n        # break into subtitle chunks\\n        chunks = []\\n        for sentence in sentences:\\n            chunks.extend(split_long_text(sentence))\\n\\n        total_chars = sum(len(chunk.replace(\"\\n\", \"\")) for chunk in chunks)\\n\\n        for chunk in chunks:\\n            chunk_char_count = len(chunk.replace(\"\\n\", \"\"))\\n\\n            # proportional timing\\n            chunk_duration = max(\\n                MIN_DURATION,\\n                (chunk_char_count / total_chars) * duration\\n            )\\n\\n            start_time = current_time\\n            end_time = current_time + chunk_duration\\n\\n            srt_block = f\"\"\"{subtitle_index}\\n{format_timestamp(start_time)} --> {format_timestamp(end_time)}\\n{chunk}\\n\\n\"\"\"\\n            srt_blocks.append(srt_block)\\n\\n            current_time = end_time\\n            subtitle_index += 1\\n\\n    with open(output_path, \"w\", encoding=\"utf-8-sig\") as f:\\n        f.writelines(srt_blocks)\\n\\n    print(f\"SRT file saved to {output_path}\")\\n\\n\\ngenerate_srt(paragraphs, durations, \"Outputs/output_subtitles.srt\")'"
      ]
     },
     "execution_count": 20,
     "metadata": {},
     "output_type": "execute_result"
    }
   ],
   "source": [
    "# ---------- SETTINGS ----------\n",
    "MAX_CHARS_PER_LINE = 35\n",
    "MAX_LINES = 2\n",
    "MIN_DURATION = 1.0  # minimum subtitle duration in seconds\n",
    "\n",
    "# ---------- HELPERS ----------\n",
    "def normalize_text(text):\n",
    "    \"\"\"\n",
    "    Cleans problematic Unicode characters that break\n",
    "    subtitle rendering in Pillow / MoviePy.\n",
    "    \"\"\"\n",
    "\n",
    "    # First normalize Unicode composition\n",
    "    text = unicodedata.normalize(\"NFKC\", text)\n",
    "\n",
    "    replacements = {\n",
    "        \"’\": \"'\",\n",
    "        \"‘\": \"'\",\n",
    "        \"‚\": \",\",\n",
    "        \"‛\": \"'\",\n",
    "\n",
    "        \"“\": '\"',\n",
    "        \"”\": '\"',\n",
    "        \"„\": '\"',\n",
    "\n",
    "        \"—\": \"-\",\n",
    "        \"–\": \"-\",\n",
    "        \"―\": \"-\",\n",
    "\n",
    "        \"…\": \"...\",\n",
    "\n",
    "        \"\\u00A0\": \" \",   # non-breaking space\n",
    "        \"\\u200B\": \"\",    # zero-width space\n",
    "        \"\\u200C\": \"\",\n",
    "        \"\\u200D\": \"\",\n",
    "        \"\\uFEFF\": \"\",    # BOM if embedded\n",
    "    }\n",
    "\n",
    "    for bad, good in replacements.items():\n",
    "        text = text.replace(bad, good)\n",
    "\n",
    "    # Remove any remaining control characters\n",
    "    text = \"\".join(\n",
    "        ch for ch in text\n",
    "        if unicodedata.category(ch)[0] != \"C\"\n",
    "    )\n",
    "\n",
    "    return text\n",
    "\n",
    "def format_timestamp(seconds):\n",
    "    td = timedelta(seconds=seconds)\n",
    "    total_seconds = int(td.total_seconds())\n",
    "    millis = int((seconds - total_seconds) * 1000)\n",
    "\n",
    "    hours = total_seconds // 3600\n",
    "    minutes = (total_seconds % 3600) // 60\n",
    "    secs = total_seconds % 60\n",
    "\n",
    "    return f\"{hours:02}:{minutes:02}:{secs:02},{millis:03}\"\n",
    "\n",
    "\n",
    "def split_into_sentences(text):\n",
    "    return re.split(r'(?<=[.!?]) +', text.strip())\n",
    "\n",
    "\n",
    "def split_long_text(text, max_chars=MAX_CHARS_PER_LINE):\n",
    "    words = text.split()\n",
    "    lines = []\n",
    "    current_line = \"\"\n",
    "\n",
    "    for word in words:\n",
    "        if len(current_line) + len(word) + 1 <= max_chars:\n",
    "            current_line += (\" \" if current_line else \"\") + word\n",
    "        else:\n",
    "            lines.append(current_line)\n",
    "            current_line = word\n",
    "\n",
    "    if current_line:\n",
    "        lines.append(current_line)\n",
    "\n",
    "    # combine into blocks of max 2 lines\n",
    "    blocks = []\n",
    "    for i in range(0, len(lines), MAX_LINES):\n",
    "        block = \"\\n\".join(lines[i:i + MAX_LINES])\n",
    "        blocks.append(block)\n",
    "\n",
    "    return blocks\n",
    "\n",
    "'''\n",
    "# ---------- MAIN FUNCTION ----------\n",
    "def generate_srt(paragraphs, durations, output_path=\"subtitles.srt\"):\n",
    "    assert len(paragraphs) == len(durations), \"Paragraphs and durations must match\"\n",
    "\n",
    "    current_time = 0.0\n",
    "    subtitle_index = 1\n",
    "    srt_blocks = []\n",
    "\n",
    "    for paragraph, duration in zip(paragraphs, durations):\n",
    "        paragraph = normalize_text(paragraph)\n",
    "        sentences = split_into_sentences(paragraph)\n",
    "\n",
    "        # break into subtitle chunks\n",
    "        chunks = []\n",
    "        for sentence in sentences:\n",
    "            chunks.extend(split_long_text(sentence))\n",
    "\n",
    "        total_chars = sum(len(chunk.replace(\"\\n\", \"\")) for chunk in chunks)\n",
    "\n",
    "        for chunk in chunks:\n",
    "            chunk_char_count = len(chunk.replace(\"\\n\", \"\"))\n",
    "\n",
    "            # proportional timing\n",
    "            chunk_duration = max(\n",
    "                MIN_DURATION,\n",
    "                (chunk_char_count / total_chars) * duration\n",
    "            )\n",
    "\n",
    "            start_time = current_time\n",
    "            end_time = current_time + chunk_duration\n",
    "\n",
    "            srt_block = f\"\"\"{subtitle_index}\n",
    "{format_timestamp(start_time)} --> {format_timestamp(end_time)}\n",
    "{chunk}\n",
    "\n",
    "\"\"\"\n",
    "            srt_blocks.append(srt_block)\n",
    "\n",
    "            current_time = end_time\n",
    "            subtitle_index += 1\n",
    "\n",
    "    with open(output_path, \"w\", encoding=\"utf-8-sig\") as f:\n",
    "        f.writelines(srt_blocks)\n",
    "\n",
    "    print(f\"SRT file saved to {output_path}\")\n",
    "\n",
    "\n",
    "generate_srt(paragraphs, durations, \"Outputs/output_subtitles.srt\")'''"
   ]
  },
  {
   "cell_type": "code",
   "execution_count": 21,
   "id": "6f5ff437",
   "metadata": {},
   "outputs": [
    {
     "name": "stdout",
     "output_type": "stream",
     "text": [
      "SRT file saved to Outputs/output_subtitles.srt\n"
     ]
    }
   ],
   "source": [
    "def generate_srt(paragraphs, sentences_durations, output_path=\"subtitles.srt\"):\n",
    "    current_time = 0.0\n",
    "    subtitle_index = 1\n",
    "    srt_blocks = []\n",
    "    duration_index = 0  # pointer into flat sentences_durations list\n",
    "\n",
    "    for paragraph in paragraphs:\n",
    "        paragraph = normalize_text(paragraph)\n",
    "        sentences = split_into_sentences(paragraph)\n",
    "\n",
    "        for sentence in sentences:\n",
    "            sentence_duration = sentences_durations[duration_index]\n",
    "            duration_index += 1\n",
    "\n",
    "            # Split long sentence into visual chunks\n",
    "            chunks = split_long_text(sentence)\n",
    "            total_chars = sum(len(c.replace(\"\\n\", \"\")) for c in chunks)\n",
    "\n",
    "            for chunk in chunks:\n",
    "                chunk_char_count = len(chunk.replace(\"\\n\", \"\"))\n",
    "\n",
    "                # Proportional split only within the sentence now\n",
    "                chunk_duration = max(\n",
    "                    MIN_DURATION,\n",
    "                    (chunk_char_count / total_chars) * sentence_duration\n",
    "                )\n",
    "\n",
    "                start_time = current_time\n",
    "                end_time = current_time + chunk_duration\n",
    "\n",
    "                srt_block = f\"\"\"{subtitle_index}\n",
    "{format_timestamp(start_time)} --> {format_timestamp(end_time)}\n",
    "{chunk}\n",
    "\n",
    "\"\"\"\n",
    "                srt_blocks.append(srt_block)\n",
    "                current_time = end_time\n",
    "                subtitle_index += 1\n",
    "\n",
    "    with open(output_path, \"w\", encoding=\"utf-8-sig\") as f:\n",
    "        f.writelines(srt_blocks)\n",
    "\n",
    "    print(f\"SRT file saved to {output_path}\")\n",
    "\n",
    "\n",
    "generate_srt(paragraphs, sentences_durations, \"Outputs/output_subtitles.srt\")"
   ]
  },
  {
   "cell_type": "code",
   "execution_count": 22,
   "id": "7a8349e4",
   "metadata": {},
   "outputs": [],
   "source": [
    "def run_ffmpeg(cmd):\n",
    "    cmd = [str(c) for c in cmd]\n",
    "    print(\"Running:\", \" \".join(cmd))\n",
    "\n",
    "    result = subprocess.run(cmd, capture_output=True, text=True)\n",
    "\n",
    "    print(result.stderr)  # show FFmpeg error\n",
    "\n",
    "    if result.returncode != 0:\n",
    "        raise RuntimeError(\"FFmpeg failed\")\n",
    "\n",
    "def create_kenburns_clip(\n",
    "    image_path,\n",
    "    duration,\n",
    "    output_path,\n",
    "    fps=30,\n",
    "    target_w=1920,\n",
    "    target_h=1080\n",
    "):\n",
    "    total_frames = int(duration * fps)\n",
    "\n",
    "    with Image.open(image_path) as img:\n",
    "        img_w, img_h = img.size\n",
    "\n",
    "    scale_factor = max(target_w / img_w, target_h / img_h)\n",
    "\n",
    "    scaled_w = int(img_w * scale_factor)\n",
    "    scaled_h = int(img_h * scale_factor)\n",
    "\n",
    "    scaled_w = scaled_w if scaled_w % 2 == 0 else scaled_w + 1\n",
    "    scaled_h = scaled_h if scaled_h % 2 == 0 else scaled_h + 1\n",
    "\n",
    "    max_x = scaled_w - target_w\n",
    "    max_y = scaled_h - target_h\n",
    "\n",
    "    threshold = 40  \n",
    "    \n",
    "    # Smooth easing expression\n",
    "    #ease = f\"(0.5-0.5*cos(PI*t/{duration}))\"\n",
    "    ease = f\"(0.5-0.5*cos(PI*n/{total_frames}))\"\n",
    "    \n",
    "    # Decide motion\n",
    "    if (img_w / img_h) > (target_w / target_h):\n",
    "        # Wider image → horizontal movement possible\n",
    "        if max_x > threshold:\n",
    "            x_expr = f\"floor({max_x}*{ease})\"\n",
    "            y_expr = f\"{max_y}/2\"\n",
    "            zoom_filter = \"\"\n",
    "        else:\n",
    "            # Not enough horizontal space → subtle zoom\n",
    "            zoom_filter = f\",scale=iw*1.05:ih*1.05\"\n",
    "            x_expr = f\"(iw-{target_w})/2\"\n",
    "            y_expr = f\"(ih-{target_h})/2\"\n",
    "    else:\n",
    "        # Taller image → vertical movement\n",
    "        if max_y > threshold:\n",
    "            x_expr = f\"{max_x}/2\"\n",
    "            y_expr = f\"floor({max_y}*{ease})\"\n",
    "            zoom_filter = \"\"\n",
    "        else:\n",
    "            # Not enough vertical space → subtle zoom\n",
    "            zoom_filter = f\",scale=iw*1.05:ih*1.05\"\n",
    "            x_expr = f\"(iw-{target_w})/2\"\n",
    "            y_expr = f\"(ih-{target_h})/2\"\n",
    "\n",
    "    vf = (\n",
    "        f\"scale={scaled_w}:{scaled_h}\"\n",
    "        f\"{zoom_filter},\"\n",
    "        f\"crop={target_w}:{target_h}:\"\n",
    "        f\"x='{x_expr}':\"\n",
    "        f\"y='{y_expr}'\"\n",
    "    )\n",
    "\n",
    "    cmd = [\n",
    "        \"ffmpeg\",\n",
    "        \"-y\",\n",
    "        \"-loop\", \"1\",\n",
    "        \"-framerate\", str(fps),\n",
    "        \"-t\", str(duration),\n",
    "        \"-i\", image_path,\n",
    "        \"-vf\", f\"setsar=1,{vf}\",\n",
    "        \"-frames:v\", str(total_frames),\n",
    "        \"-c:v\", \"h264_nvenc\",\n",
    "        \"-preset\", \"p1\",\n",
    "        \"-pix_fmt\", \"yuv420p\",\n",
    "        \"-vsync\", \"cfr\",\n",
    "        \"-video_track_timescale\", \"30\",\n",
    "        output_path\n",
    "    ]\n",
    "\n",
    "    run_ffmpeg(cmd)"
   ]
  },
  {
   "cell_type": "code",
   "execution_count": 23,
   "id": "616b8cda",
   "metadata": {},
   "outputs": [],
   "source": [
    "def generate_all_clips(image_files, durations, temp_dir=\"temp_clips\"):\n",
    "    Path(temp_dir).mkdir(exist_ok=True)\n",
    "\n",
    "    outputs = []\n",
    "\n",
    "    for i, (img, dur) in enumerate(zip(image_files, durations)):\n",
    "        out = f\"{temp_dir}/clip_{i}.mp4\"\n",
    "        create_kenburns_clip(img, dur, out)\n",
    "        outputs.append(out)\n",
    "\n",
    "    return outputs\n",
    "\n",
    "def concatenate_clips(clips, output_path):\n",
    "    list_file = \"Outputs/concat_list.txt\"\n",
    "\n",
    "    with open(list_file, \"w\") as f:\n",
    "        for clip in clips:\n",
    "            f.write(f\"file '{os.path.abspath(clip)}'\\n\")\n",
    "\n",
    "    cmd = [\n",
    "        \"ffmpeg\",\n",
    "        \"-y\",\n",
    "        \"-f\", \"concat\",\n",
    "        \"-safe\", \"0\",\n",
    "        \"-i\", list_file,\n",
    "        \"-c\", \"copy\",       # ← stream copy, no re-encoding\n",
    "        output_path\n",
    "    ]\n",
    "\n",
    "    run_ffmpeg(cmd)"
   ]
  },
  {
   "cell_type": "code",
   "execution_count": 24,
   "id": "c68a2dfe",
   "metadata": {},
   "outputs": [],
   "source": [
    "def add_audio(video_path, audio_path, output_path):\n",
    "    cmd = [\n",
    "        \"ffmpeg\",\n",
    "        \"-y\",\n",
    "        \"-i\", video_path,\n",
    "        \"-i\", audio_path,\n",
    "        \"-c\", \"copy\",\n",
    "        \"-c:a\", \"aac\",\n",
    "        output_path\n",
    "    ]\n",
    "\n",
    "    run_ffmpeg(cmd)\n",
    "\n",
    "def add_subtitles(video_path, srt_path, output_path):\n",
    "    cmd = [\n",
    "        \"ffmpeg\",\n",
    "        \"-y\",\n",
    "        \"-fflags\", \"+genpts\",\n",
    "        \"-i\", video_path,\n",
    "        \"-vf\", f\"subtitles={srt_path}\",\n",
    "        \"-c:v\", \"h264_nvenc\",\n",
    "        \"-preset\", \"p1\",\n",
    "        \"-pix_fmt\", \"yuv420p\",\n",
    "        \"-fps_mode\", \"cfr\",\n",
    "        \"-c:a\", \"copy\",\n",
    "        output_path\n",
    "    ]\n",
    "\n",
    "    run_ffmpeg(cmd)\n",
    "\n",
    "def cleanup_files():\n",
    "    temp_dir = \"temp_clips\"\n",
    "    if os.path.exists(temp_dir):\n",
    "        for f in os.listdir(temp_dir):\n",
    "            os.remove(os.path.join(temp_dir, f))\n",
    "        os.rmdir(temp_dir)\n",
    "\n",
    "    temp_dir = \"temp_frames\"\n",
    "    if os.path.exists(temp_dir):\n",
    "        for f in os.listdir(temp_dir):\n",
    "            os.remove(os.path.join(temp_dir, f))\n",
    "        os.rmdir(temp_dir)\n",
    "\n",
    "    for f in os.listdir('Outputs'):\n",
    "        if f.startswith(\"combined\") or f.startswith(\"with_audio\") or f.startswith(\"concat_list\") or f.startswith(\"output_subtitles\") or f.endswith(\".wav\"):\n",
    "            os.remove(os.path.join('Outputs', f))"
   ]
  },
  {
   "cell_type": "code",
   "execution_count": 25,
   "id": "2970d6f9",
   "metadata": {},
   "outputs": [
    {
     "name": "stdout",
     "output_type": "stream",
     "text": [
      "Running: ffmpeg -y -loop 1 -framerate 30 -t 4.8 -i temp_frames\\0000.jpg -vf setsar=1,scale=1920:1080,scale=iw*1.05:ih*1.05,crop=1920:1080:x='(iw-1920)/2':y='(ih-1080)/2' -frames:v 144 -c:v h264_nvenc -preset p1 -pix_fmt yuv420p -vsync cfr -video_track_timescale 30 temp_clips/clip_0.mp4\n",
      "ffmpeg version 8.0.1-essentials_build-www.gyan.dev Copyright (c) 2000-2025 the FFmpeg developers\n",
      "  built with gcc 15.2.0 (Rev8, Built by MSYS2 project)\n",
      "  configuration: --enable-gpl --enable-version3 --enable-static --disable-w32threads --disable-autodetect --enable-fontconfig --enable-iconv --enable-gnutls --enable-libxml2 --enable-gmp --enable-bzlib --enable-lzma --enable-zlib --enable-libsrt --enable-libssh --enable-libzmq --enable-avisynth --enable-sdl2 --enable-libwebp --enable-libx264 --enable-libx265 --enable-libxvid --enable-libaom --enable-libopenjpeg --enable-libvpx --enable-mediafoundation --enable-libass --enable-libfreetype --enable-libfribidi --enable-libharfbuzz --enable-libvidstab --enable-libvmaf --enable-libzimg --enable-amf --enable-cuda-llvm --enable-cuvid --enable-dxva2 --enable-d3d11va --enable-d3d12va --enable-ffnvcodec --enable-libvpl --enable-nvdec --enable-nvenc --enable-vaapi --enable-openal --enable-libgme --enable-libopenmpt --enable-libopencore-amrwb --enable-libmp3lame --enable-libtheora --enable-libvo-amrwbenc --enable-libgsm --enable-libopencore-amrnb --enable-libopus --enable-libspeex --enable-libvorbis --enable-librubberband\n",
      "  libavutil      60.  8.100 / 60.  8.100\n",
      "  libavcodec     62. 11.100 / 62. 11.100\n",
      "  libavformat    62.  3.100 / 62.  3.100\n",
      "  libavdevice    62.  1.100 / 62.  1.100\n",
      "  libavfilter    11.  4.100 / 11.  4.100\n",
      "  libswscale      9.  1.100 /  9.  1.100\n",
      "  libswresample   6.  1.100 /  6.  1.100\n",
      "-vsync is deprecated. Use -fps_mode\n",
      "Input #0, image2, from 'temp_frames\\0000.jpg':\n",
      "  Duration: 00:00:00.03, start: 0.000000, bitrate: 10000 kb/s\n",
      "  Stream #0:0: Video: mjpeg (Baseline), yuvj420p(pc, bt470bg/unknown/unknown), 1100x619 [SAR 1:1 DAR 1100:619], 30 fps, 30 tbr, 30 tbn\n",
      "Stream mapping:\n",
      "  Stream #0:0 -> #0:0 (mjpeg (native) -> h264 (h264_nvenc))\n",
      "Press [q] to stop, [?] for help\n",
      "[swscaler @ 000001c35bec5240] deprecated pixel format used, make sure you did set range correctly\n",
      "[swscaler @ 000001c35c87e280] deprecated pixel format used, make sure you did set range correctly\n",
      "Output #0, mp4, to 'temp_clips/clip_0.mp4':\n",
      "  Metadata:\n",
      "    encoder         : Lavf62.3.100\n",
      "  Stream #0:0: Video: h264 (Main) (avc1 / 0x31637661), yuv420p(pc, bt470bg/unknown/unknown, progressive), 1920x1080 [SAR 2475:2476 DAR 1100:619], q=2-31, 2000 kb/s, 30 fps, 30 tbn\n",
      "    Metadata:\n",
      "      encoder         : Lavc62.11.100 h264_nvenc\n",
      "    Side data:\n",
      "      cpb: bitrate max/min/avg: 0/0/2000000 buffer size: 4000000 vbv_delay: N/A\n",
      "frame=   86 fps=0.0 q=9.0 size=       0KiB time=00:00:02.86 bitrate=   0.1kbits/s speed=5.72x elapsed=0:00:00.50    \n",
      "[out#0/mp4 @ 000001c35b016280] video:239KiB audio:0KiB subtitle:0KiB other streams:0KiB global headers:0KiB muxing overhead: 0.590656%\n",
      "frame=  144 fps=0.0 q=9.0 Lsize=     241KiB time=00:00:04.80 bitrate= 410.7kbits/s speed=7.27x elapsed=0:00:00.66    \n",
      "\n",
      "Running: ffmpeg -y -loop 1 -framerate 30 -t 10.8 -i temp_frames\\0001.jpg -vf setsar=1,scale=1920:3414,crop=1920:1080:x='0/2':y='floor(2334*(0.5-0.5*cos(PI*n/324)))' -frames:v 324 -c:v h264_nvenc -preset p1 -pix_fmt yuv420p -vsync cfr -video_track_timescale 30 temp_clips/clip_1.mp4\n",
      "ffmpeg version 8.0.1-essentials_build-www.gyan.dev Copyright (c) 2000-2025 the FFmpeg developers\n",
      "  built with gcc 15.2.0 (Rev8, Built by MSYS2 project)\n",
      "  configuration: --enable-gpl --enable-version3 --enable-static --disable-w32threads --disable-autodetect --enable-fontconfig --enable-iconv --enable-gnutls --enable-libxml2 --enable-gmp --enable-bzlib --enable-lzma --enable-zlib --enable-libsrt --enable-libssh --enable-libzmq --enable-avisynth --enable-sdl2 --enable-libwebp --enable-libx264 --enable-libx265 --enable-libxvid --enable-libaom --enable-libopenjpeg --enable-libvpx --enable-mediafoundation --enable-libass --enable-libfreetype --enable-libfribidi --enable-libharfbuzz --enable-libvidstab --enable-libvmaf --enable-libzimg --enable-amf --enable-cuda-llvm --enable-cuvid --enable-dxva2 --enable-d3d11va --enable-d3d12va --enable-ffnvcodec --enable-libvpl --enable-nvdec --enable-nvenc --enable-vaapi --enable-openal --enable-libgme --enable-libopenmpt --enable-libopencore-amrwb --enable-libmp3lame --enable-libtheora --enable-libvo-amrwbenc --enable-libgsm --enable-libopencore-amrnb --enable-libopus --enable-libspeex --enable-libvorbis --enable-librubberband\n",
      "  libavutil      60.  8.100 / 60.  8.100\n",
      "  libavcodec     62. 11.100 / 62. 11.100\n",
      "  libavformat    62.  3.100 / 62.  3.100\n",
      "  libavdevice    62.  1.100 / 62.  1.100\n",
      "  libavfilter    11.  4.100 / 11.  4.100\n",
      "  libswscale      9.  1.100 /  9.  1.100\n",
      "  libswresample   6.  1.100 /  6.  1.100\n",
      "-vsync is deprecated. Use -fps_mode\n",
      "Input #0, image2, from 'temp_frames\\0001.jpg':\n",
      "  Duration: 00:00:00.03, start: 0.000000, bitrate: 818986 kb/s\n",
      "  Stream #0:0: Video: mjpeg (Baseline), yuvj420p(pc, bt470bg/unknown/unknown), 2988x5312 [SAR 1:1 DAR 9:16], 30 fps, 30 tbr, 30 tbn\n",
      "Stream mapping:\n",
      "  Stream #0:0 -> #0:0 (mjpeg (native) -> h264 (h264_nvenc))\n",
      "Press [q] to stop, [?] for help\n",
      "[swscaler @ 000001b29da4c300] deprecated pixel format used, make sure you did set range correctly\n",
      "Output #0, mp4, to 'temp_clips/clip_1.mp4':\n",
      "  Metadata:\n",
      "    encoder         : Lavf62.3.100\n",
      "  Stream #0:0: Video: h264 (Main) (avc1 / 0x31637661), yuv420p(pc, bt470bg/unknown/unknown, progressive), 1920x1080 [SAR 5121:5120 DAR 569:320], q=2-31, 2000 kb/s, 30 fps, 30 tbn\n",
      "    Metadata:\n",
      "      encoder         : Lavc62.11.100 h264_nvenc\n",
      "    Side data:\n",
      "      cpb: bitrate max/min/avg: 0/0/2000000 buffer size: 4000000 vbv_delay: N/A\n",
      "frame=    4 fps=0.0 q=31.0 size=       0KiB time=00:00:00.13 bitrate=   2.9kbits/s speed=0.26x elapsed=0:00:00.51    \n",
      "frame=   11 fps= 11 q=29.0 size=       0KiB time=00:00:00.36 bitrate=   1.0kbits/s speed=0.357x elapsed=0:00:01.02    \n",
      "frame=   20 fps= 13 q=20.0 size=       0KiB time=00:00:00.66 bitrate=   0.6kbits/s speed=0.426x elapsed=0:00:01.56    \n",
      "frame=   28 fps= 13 q=28.0 size=     256KiB time=00:00:00.93 bitrate=2247.4kbits/s speed=0.447x elapsed=0:00:02.08    \n",
      "frame=   34 fps= 13 q=22.0 size=     256KiB time=00:00:01.13 bitrate=1850.8kbits/s speed=0.436x elapsed=0:00:02.59    \n",
      "frame=   42 fps= 14 q=14.0 size=     256KiB time=00:00:01.40 bitrate=1498.2kbits/s speed=0.45x elapsed=0:00:03.10    \n",
      "frame=   50 fps= 14 q=12.0 size=     512KiB time=00:00:01.66 bitrate=2516.8kbits/s speed=0.46x elapsed=0:00:03.62    \n",
      "frame=   58 fps= 14 q=11.0 size=     512KiB time=00:00:01.93 bitrate=2169.7kbits/s speed=0.466x elapsed=0:00:04.14    \n",
      "frame=   66 fps= 14 q=11.0 size=     512KiB time=00:00:02.20 bitrate=1906.7kbits/s speed=0.473x elapsed=0:00:04.65    \n",
      "frame=   74 fps= 14 q=11.0 size=     512KiB time=00:00:02.46 bitrate=1700.5kbits/s speed=0.477x elapsed=0:00:05.17    \n",
      "frame=   83 fps= 15 q=11.0 size=     512KiB time=00:00:02.76 bitrate=1516.2kbits/s speed=0.487x elapsed=0:00:05.68    \n",
      "frame=   92 fps= 15 q=11.0 size=     768KiB time=00:00:03.06 bitrate=2051.7kbits/s speed=0.495x elapsed=0:00:06.19    \n",
      "frame=  100 fps= 15 q=11.0 size=     768KiB time=00:00:03.33 bitrate=1887.6kbits/s speed=0.496x elapsed=0:00:06.72    \n",
      "frame=  108 fps= 15 q=11.0 size=     768KiB time=00:00:03.60 bitrate=1747.7kbits/s speed=0.497x elapsed=0:00:07.24    \n",
      "frame=  116 fps= 15 q=11.0 size=     768KiB time=00:00:03.86 bitrate=1627.2kbits/s speed=0.499x elapsed=0:00:07.75    \n",
      "frame=  125 fps= 15 q=11.0 size=    1024KiB time=00:00:04.16 bitrate=2013.4kbits/s speed=0.504x elapsed=0:00:08.26    \n",
      "frame=  133 fps= 15 q=11.0 size=    1024KiB time=00:00:04.43 bitrate=1892.3kbits/s speed=0.504x elapsed=0:00:08.78    \n",
      "frame=  140 fps= 15 q=12.0 size=    1280KiB time=00:00:04.66 bitrate=2247.0kbits/s speed=0.502x elapsed=0:00:09.30    \n",
      "frame=  149 fps= 15 q=12.0 size=    1280KiB time=00:00:04.96 bitrate=2111.3kbits/s speed=0.506x elapsed=0:00:09.81    \n",
      "frame=  156 fps= 15 q=12.0 size=    1280KiB time=00:00:05.20 bitrate=2016.6kbits/s speed=0.504x elapsed=0:00:10.32    \n",
      "frame=  164 fps= 15 q=12.0 size=    1536KiB time=00:00:05.46 bitrate=2301.8kbits/s speed=0.504x elapsed=0:00:10.84    \n",
      "frame=  173 fps= 15 q=12.0 size=    1536KiB time=00:00:05.76 bitrate=2182.1kbits/s speed=0.508x elapsed=0:00:11.35    \n",
      "frame=  181 fps= 15 q=13.0 size=    1536KiB time=00:00:06.03 bitrate=2085.6kbits/s speed=0.508x elapsed=0:00:11.87    \n",
      "frame=  188 fps= 15 q=13.0 size=    1792KiB time=00:00:06.26 bitrate=2342.6kbits/s speed=0.506x elapsed=0:00:12.39    \n",
      "frame=  198 fps= 15 q=13.0 size=    1792KiB time=00:00:06.60 bitrate=2224.3kbits/s speed=0.511x elapsed=0:00:12.90    \n",
      "frame=  207 fps= 15 q=13.0 size=    1792KiB time=00:00:06.90 bitrate=2127.6kbits/s speed=0.514x elapsed=0:00:13.42    \n",
      "frame=  217 fps= 16 q=13.0 size=    2048KiB time=00:00:07.23 bitrate=2319.5kbits/s speed=0.519x elapsed=0:00:13.93    \n",
      "frame=  226 fps= 16 q=12.0 size=    2048KiB time=00:00:07.53 bitrate=2227.1kbits/s speed=0.521x elapsed=0:00:14.45    \n",
      "frame=  236 fps= 16 q=12.0 size=    2048KiB time=00:00:07.86 bitrate=2132.7kbits/s speed=0.525x elapsed=0:00:14.97    \n",
      "frame=  246 fps= 16 q=12.0 size=    2048KiB time=00:00:08.20 bitrate=2046.0kbits/s speed=0.53x elapsed=0:00:15.48    \n",
      "frame=  255 fps= 16 q=20.0 size=    2560KiB time=00:00:08.50 bitrate=2467.3kbits/s speed=0.531x elapsed=0:00:15.99    \n",
      "frame=  265 fps= 16 q=15.0 size=    2560KiB time=00:00:08.83 bitrate=2374.2kbits/s speed=0.535x elapsed=0:00:16.51    \n",
      "frame=  275 fps= 16 q=15.0 size=    2816KiB time=00:00:09.16 bitrate=2516.6kbits/s speed=0.538x elapsed=0:00:17.03    \n",
      "frame=  284 fps= 16 q=14.0 size=    2816KiB time=00:00:09.46 bitrate=2436.9kbits/s speed=0.539x elapsed=0:00:17.55    \n",
      "frame=  293 fps= 16 q=14.0 size=    2816KiB time=00:00:09.76 bitrate=2362.0kbits/s speed=0.541x elapsed=0:00:18.06    \n",
      "frame=  303 fps= 16 q=14.0 size=    2816KiB time=00:00:10.10 bitrate=2284.1kbits/s speed=0.544x elapsed=0:00:18.57    \n",
      "frame=  312 fps= 16 q=14.0 size=    2816KiB time=00:00:10.40 bitrate=2218.2kbits/s speed=0.545x elapsed=0:00:19.09    \n",
      "frame=  323 fps= 16 q=13.0 size=    3072KiB time=00:00:10.76 bitrate=2337.4kbits/s speed=0.549x elapsed=0:00:19.60    \n",
      "[out#0/mp4 @ 000001b29d9a8100] video:3082KiB audio:0KiB subtitle:0KiB other streams:0KiB global headers:0KiB muxing overhead: 0.070311%\n",
      "frame=  324 fps= 16 q=13.0 Lsize=    3084KiB time=00:00:10.80 bitrate=2339.4kbits/s speed=0.548x elapsed=0:00:19.69    \n",
      "\n",
      "Running: ffmpeg -y -loop 1 -framerate 30 -t 7.44 -i temp_frames\\0002.jpg -vf setsar=1,scale=1920:1080,scale=iw*1.05:ih*1.05,crop=1920:1080:x='(iw-1920)/2':y='(ih-1080)/2' -frames:v 223 -c:v h264_nvenc -preset p1 -pix_fmt yuv420p -vsync cfr -video_track_timescale 30 temp_clips/clip_2.mp4\n",
      "ffmpeg version 8.0.1-essentials_build-www.gyan.dev Copyright (c) 2000-2025 the FFmpeg developers\n",
      "  built with gcc 15.2.0 (Rev8, Built by MSYS2 project)\n",
      "  configuration: --enable-gpl --enable-version3 --enable-static --disable-w32threads --disable-autodetect --enable-fontconfig --enable-iconv --enable-gnutls --enable-libxml2 --enable-gmp --enable-bzlib --enable-lzma --enable-zlib --enable-libsrt --enable-libssh --enable-libzmq --enable-avisynth --enable-sdl2 --enable-libwebp --enable-libx264 --enable-libx265 --enable-libxvid --enable-libaom --enable-libopenjpeg --enable-libvpx --enable-mediafoundation --enable-libass --enable-libfreetype --enable-libfribidi --enable-libharfbuzz --enable-libvidstab --enable-libvmaf --enable-libzimg --enable-amf --enable-cuda-llvm --enable-cuvid --enable-dxva2 --enable-d3d11va --enable-d3d12va --enable-ffnvcodec --enable-libvpl --enable-nvdec --enable-nvenc --enable-vaapi --enable-openal --enable-libgme --enable-libopenmpt --enable-libopencore-amrwb --enable-libmp3lame --enable-libtheora --enable-libvo-amrwbenc --enable-libgsm --enable-libopencore-amrnb --enable-libopus --enable-libspeex --enable-libvorbis --enable-librubberband\n",
      "  libavutil      60.  8.100 / 60.  8.100\n",
      "  libavcodec     62. 11.100 / 62. 11.100\n",
      "  libavformat    62.  3.100 / 62.  3.100\n",
      "  libavdevice    62.  1.100 / 62.  1.100\n",
      "  libavfilter    11.  4.100 / 11.  4.100\n",
      "  libswscale      9.  1.100 /  9.  1.100\n",
      "  libswresample   6.  1.100 /  6.  1.100\n",
      "-vsync is deprecated. Use -fps_mode\n",
      "Input #0, image2, from 'temp_frames\\0002.jpg':\n",
      "  Duration: 00:00:00.03, start: 0.000000, bitrate: 67816 kb/s\n",
      "  Stream #0:0: Video: mjpeg (Baseline), yuvj420p(pc, bt470bg/unknown/unknown), 1000x563 [SAR 1:1 DAR 1000:563], 30 fps, 30 tbr, 30 tbn\n",
      "Stream mapping:\n",
      "  Stream #0:0 -> #0:0 (mjpeg (native) -> h264 (h264_nvenc))\n",
      "Press [q] to stop, [?] for help\n",
      "[swscaler @ 000002824a70f000] deprecated pixel format used, make sure you did set range correctly\n",
      "[swscaler @ 000002824a65cc40] deprecated pixel format used, make sure you did set range correctly\n",
      "Output #0, mp4, to 'temp_clips/clip_2.mp4':\n",
      "  Metadata:\n",
      "    encoder         : Lavf62.3.100\n",
      "  Stream #0:0: Video: h264 (Main) (avc1 / 0x31637661), yuv420p(pc, bt470bg/unknown/unknown, progressive), 1920x1080 [SAR 1125:1126 DAR 1000:563], q=2-31, 2000 kb/s, 30 fps, 30 tbn\n",
      "    Metadata:\n",
      "      encoder         : Lavc62.11.100 h264_nvenc\n",
      "    Side data:\n",
      "      cpb: bitrate max/min/avg: 0/0/2000000 buffer size: 4000000 vbv_delay: N/A\n",
      "frame=   50 fps=0.0 q=19.0 size=     256KiB time=00:00:01.66 bitrate=1258.5kbits/s speed=3.28x elapsed=0:00:00.50    \n",
      "frame=  144 fps=140 q=10.0 size=     768KiB time=00:00:04.80 bitrate=1310.8kbits/s speed=4.68x elapsed=0:00:01.02    \n",
      "[out#0/mp4 @ 000002824a5ae7c0] video:1500KiB audio:0KiB subtitle:0KiB other streams:0KiB global headers:0KiB muxing overhead: 0.115833%\n",
      "frame=  223 fps=157 q=9.0 Lsize=    1502KiB time=00:00:07.43 bitrate=1654.8kbits/s speed=5.23x elapsed=0:00:01.42    \n",
      "\n",
      "Running: ffmpeg -y -loop 1 -framerate 30 -t 8.96 -i temp_frames\\0003.jpg -vf setsar=1,scale=1920:2560,crop=1920:1080:x='0/2':y='floor(1480*(0.5-0.5*cos(PI*n/268)))' -frames:v 268 -c:v h264_nvenc -preset p1 -pix_fmt yuv420p -vsync cfr -video_track_timescale 30 temp_clips/clip_3.mp4\n",
      "ffmpeg version 8.0.1-essentials_build-www.gyan.dev Copyright (c) 2000-2025 the FFmpeg developers\n",
      "  built with gcc 15.2.0 (Rev8, Built by MSYS2 project)\n",
      "  configuration: --enable-gpl --enable-version3 --enable-static --disable-w32threads --disable-autodetect --enable-fontconfig --enable-iconv --enable-gnutls --enable-libxml2 --enable-gmp --enable-bzlib --enable-lzma --enable-zlib --enable-libsrt --enable-libssh --enable-libzmq --enable-avisynth --enable-sdl2 --enable-libwebp --enable-libx264 --enable-libx265 --enable-libxvid --enable-libaom --enable-libopenjpeg --enable-libvpx --enable-mediafoundation --enable-libass --enable-libfreetype --enable-libfribidi --enable-libharfbuzz --enable-libvidstab --enable-libvmaf --enable-libzimg --enable-amf --enable-cuda-llvm --enable-cuvid --enable-dxva2 --enable-d3d11va --enable-d3d12va --enable-ffnvcodec --enable-libvpl --enable-nvdec --enable-nvenc --enable-vaapi --enable-openal --enable-libgme --enable-libopenmpt --enable-libopencore-amrwb --enable-libmp3lame --enable-libtheora --enable-libvo-amrwbenc --enable-libgsm --enable-libopencore-amrnb --enable-libopus --enable-libspeex --enable-libvorbis --enable-librubberband\n",
      "  libavutil      60.  8.100 / 60.  8.100\n",
      "  libavcodec     62. 11.100 / 62. 11.100\n",
      "  libavformat    62.  3.100 / 62.  3.100\n",
      "  libavdevice    62.  1.100 / 62.  1.100\n",
      "  libavfilter    11.  4.100 / 11.  4.100\n",
      "  libswscale      9.  1.100 /  9.  1.100\n",
      "  libswresample   6.  1.100 /  6.  1.100\n",
      "-vsync is deprecated. Use -fps_mode\n",
      "Input #0, image2, from 'temp_frames\\0003.jpg':\n",
      "  Duration: 00:00:00.03, start: 0.000000, bitrate: 133816 kb/s\n",
      "  Stream #0:0: Video: mjpeg (Baseline), yuvj420p(pc, bt470bg/unknown/unknown), 939x1252 [SAR 1:1 DAR 3:4], 30 fps, 30 tbr, 30 tbn\n",
      "Stream mapping:\n",
      "  Stream #0:0 -> #0:0 (mjpeg (native) -> h264 (h264_nvenc))\n",
      "Press [q] to stop, [?] for help\n",
      "[swscaler @ 00000228a51b8fc0] deprecated pixel format used, make sure you did set range correctly\n",
      "Output #0, mp4, to 'temp_clips/clip_3.mp4':\n",
      "  Metadata:\n",
      "    encoder         : Lavf62.3.100\n",
      "  Stream #0:0: Video: h264 (Main) (avc1 / 0x31637661), yuv420p(pc, bt470bg/unknown/unknown, progressive), 1920x1080 [SAR 1:1 DAR 16:9], q=2-31, 2000 kb/s, 30 fps, 30 tbn\n",
      "    Metadata:\n",
      "      encoder         : Lavc62.11.100 h264_nvenc\n",
      "    Side data:\n",
      "      cpb: bitrate max/min/avg: 0/0/2000000 buffer size: 4000000 vbv_delay: N/A\n",
      "frame=   40 fps=0.0 q=22.0 size=     256KiB time=00:00:01.33 bitrate=1573.2kbits/s speed=2.63x elapsed=0:00:00.50    \n",
      "frame=   87 fps= 85 q=22.0 size=     768KiB time=00:00:02.90 bitrate=2169.6kbits/s speed=2.84x elapsed=0:00:01.02    \n",
      "frame=  147 fps= 96 q=12.0 size=    1280KiB time=00:00:04.90 bitrate=2140.0kbits/s speed=3.19x elapsed=0:00:01.53    \n",
      "frame=  211 fps=103 q=11.0 size=    1792KiB time=00:00:07.03 bitrate=2087.3kbits/s speed=3.42x elapsed=0:00:02.05    \n",
      "[out#0/mp4 @ 00000228a5128340] video:2616KiB audio:0KiB subtitle:0KiB other streams:0KiB global headers:0KiB muxing overhead: 0.073716%\n",
      "frame=  268 fps=106 q=15.0 Lsize=    2618KiB time=00:00:08.93 bitrate=2401.1kbits/s speed=3.54x elapsed=0:00:02.52    \n",
      "\n",
      "Running: ffmpeg -y -loop 1 -framerate 30 -t 4.64 -i temp_frames\\0004.jpg -vf setsar=1,scale=1920:2568,crop=1920:1080:x='0/2':y='floor(1488*(0.5-0.5*cos(PI*n/139)))' -frames:v 139 -c:v h264_nvenc -preset p1 -pix_fmt yuv420p -vsync cfr -video_track_timescale 30 temp_clips/clip_4.mp4\n",
      "ffmpeg version 8.0.1-essentials_build-www.gyan.dev Copyright (c) 2000-2025 the FFmpeg developers\n",
      "  built with gcc 15.2.0 (Rev8, Built by MSYS2 project)\n",
      "  configuration: --enable-gpl --enable-version3 --enable-static --disable-w32threads --disable-autodetect --enable-fontconfig --enable-iconv --enable-gnutls --enable-libxml2 --enable-gmp --enable-bzlib --enable-lzma --enable-zlib --enable-libsrt --enable-libssh --enable-libzmq --enable-avisynth --enable-sdl2 --enable-libwebp --enable-libx264 --enable-libx265 --enable-libxvid --enable-libaom --enable-libopenjpeg --enable-libvpx --enable-mediafoundation --enable-libass --enable-libfreetype --enable-libfribidi --enable-libharfbuzz --enable-libvidstab --enable-libvmaf --enable-libzimg --enable-amf --enable-cuda-llvm --enable-cuvid --enable-dxva2 --enable-d3d11va --enable-d3d12va --enable-ffnvcodec --enable-libvpl --enable-nvdec --enable-nvenc --enable-vaapi --enable-openal --enable-libgme --enable-libopenmpt --enable-libopencore-amrwb --enable-libmp3lame --enable-libtheora --enable-libvo-amrwbenc --enable-libgsm --enable-libopencore-amrnb --enable-libopus --enable-libspeex --enable-libvorbis --enable-librubberband\n",
      "  libavutil      60.  8.100 / 60.  8.100\n",
      "  libavcodec     62. 11.100 / 62. 11.100\n",
      "  libavformat    62.  3.100 / 62.  3.100\n",
      "  libavdevice    62.  1.100 / 62.  1.100\n",
      "  libavfilter    11.  4.100 / 11.  4.100\n",
      "  libswscale      9.  1.100 /  9.  1.100\n",
      "  libswresample   6.  1.100 /  6.  1.100\n",
      "-vsync is deprecated. Use -fps_mode\n",
      "Input #0, image2, from 'temp_frames\\0004.jpg':\n",
      "  Duration: 00:00:00.03, start: 0.000000, bitrate: 38112 kb/s\n",
      "  Stream #0:0: Video: mjpeg (Baseline), yuvj420p(pc, bt470bg/unknown/unknown), 468x626 [SAR 1:1 DAR 234:313], 30 fps, 30 tbr, 30 tbn\n",
      "Stream mapping:\n",
      "  Stream #0:0 -> #0:0 (mjpeg (native) -> h264 (h264_nvenc))\n",
      "Press [q] to stop, [?] for help\n",
      "[swscaler @ 000001c60c944140] deprecated pixel format used, make sure you did set range correctly\n",
      "Output #0, mp4, to 'temp_clips/clip_4.mp4':\n",
      "  Metadata:\n",
      "    encoder         : Lavf62.3.100\n",
      "  Stream #0:0: Video: h264 (Main) (avc1 / 0x31637661), yuv420p(pc, bt470bg/unknown/unknown, progressive), 1920x1080 [SAR 12519:12520 DAR 2782:1565], q=2-31, 2000 kb/s, 30 fps, 30 tbn\n",
      "    Metadata:\n",
      "      encoder         : Lavc62.11.100 h264_nvenc\n",
      "    Side data:\n",
      "      cpb: bitrate max/min/avg: 0/0/2000000 buffer size: 4000000 vbv_delay: N/A\n",
      "frame=   97 fps=0.0 q=12.0 size=     768KiB time=00:00:03.23 bitrate=1945.9kbits/s speed=6.23x elapsed=0:00:00.51    \n",
      "[out#0/mp4 @ 000001c60c85b900] video:1157KiB audio:0KiB subtitle:0KiB other streams:0KiB global headers:0KiB muxing overhead: 0.121794%\n",
      "frame=  139 fps=0.0 q=11.0 Lsize=    1158KiB time=00:00:04.63 bitrate=2048.2kbits/s speed=7.13x elapsed=0:00:00.64    \n",
      "\n",
      "Running: ffmpeg -y -loop 1 -framerate 30 -t 7.44 -i temp_frames\\0005.jpg -vf setsar=1,scale=1920:2350,crop=1920:1080:x='0/2':y='floor(1270*(0.5-0.5*cos(PI*n/223)))' -frames:v 223 -c:v h264_nvenc -preset p1 -pix_fmt yuv420p -vsync cfr -video_track_timescale 30 temp_clips/clip_5.mp4\n",
      "ffmpeg version 8.0.1-essentials_build-www.gyan.dev Copyright (c) 2000-2025 the FFmpeg developers\n",
      "  built with gcc 15.2.0 (Rev8, Built by MSYS2 project)\n",
      "  configuration: --enable-gpl --enable-version3 --enable-static --disable-w32threads --disable-autodetect --enable-fontconfig --enable-iconv --enable-gnutls --enable-libxml2 --enable-gmp --enable-bzlib --enable-lzma --enable-zlib --enable-libsrt --enable-libssh --enable-libzmq --enable-avisynth --enable-sdl2 --enable-libwebp --enable-libx264 --enable-libx265 --enable-libxvid --enable-libaom --enable-libopenjpeg --enable-libvpx --enable-mediafoundation --enable-libass --enable-libfreetype --enable-libfribidi --enable-libharfbuzz --enable-libvidstab --enable-libvmaf --enable-libzimg --enable-amf --enable-cuda-llvm --enable-cuvid --enable-dxva2 --enable-d3d11va --enable-d3d12va --enable-ffnvcodec --enable-libvpl --enable-nvdec --enable-nvenc --enable-vaapi --enable-openal --enable-libgme --enable-libopenmpt --enable-libopencore-amrwb --enable-libmp3lame --enable-libtheora --enable-libvo-amrwbenc --enable-libgsm --enable-libopencore-amrnb --enable-libopus --enable-libspeex --enable-libvorbis --enable-librubberband\n",
      "  libavutil      60.  8.100 / 60.  8.100\n",
      "  libavcodec     62. 11.100 / 62. 11.100\n",
      "  libavformat    62.  3.100 / 62.  3.100\n",
      "  libavdevice    62.  1.100 / 62.  1.100\n",
      "  libavfilter    11.  4.100 / 11.  4.100\n",
      "  libswscale      9.  1.100 /  9.  1.100\n",
      "  libswresample   6.  1.100 /  6.  1.100\n",
      "-vsync is deprecated. Use -fps_mode\n",
      "Input #0, image2, from 'temp_frames\\0005.jpg':\n",
      "  Duration: 00:00:00.03, start: 0.000000, bitrate: 41199 kb/s\n",
      "  Stream #0:0: Video: mjpeg (Baseline), yuvj420p(pc, bt470bg/unknown/unknown), 792x969 [SAR 1:1 DAR 264:323], 30 fps, 30 tbr, 30 tbn\n",
      "Stream mapping:\n",
      "  Stream #0:0 -> #0:0 (mjpeg (native) -> h264 (h264_nvenc))\n",
      "Press [q] to stop, [?] for help\n",
      "[swscaler @ 000001b336244c80] deprecated pixel format used, make sure you did set range correctly\n",
      "Output #0, mp4, to 'temp_clips/clip_5.mp4':\n",
      "  Metadata:\n",
      "    encoder         : Lavf62.3.100\n",
      "  Stream #0:0: Video: h264 (Main) (avc1 / 0x31637661), yuv420p(pc, bt470bg/unknown/unknown, progressive), 1920x1080 [SAR 2585:2584 DAR 5170:2907], q=2-31, 2000 kb/s, 30 fps, 30 tbn\n",
      "    Metadata:\n",
      "      encoder         : Lavc62.11.100 h264_nvenc\n",
      "    Side data:\n",
      "      cpb: bitrate max/min/avg: 0/0/2000000 buffer size: 4000000 vbv_delay: N/A\n",
      "frame=   78 fps=0.0 q=10.0 size=     256KiB time=00:00:02.60 bitrate= 806.7kbits/s speed=5.12x elapsed=0:00:00.50    \n",
      "frame=  199 fps=193 q=9.0 size=    1280KiB time=00:00:06.63 bitrate=1580.8kbits/s speed=6.45x elapsed=0:00:01.02    \n",
      "[out#0/mp4 @ 000001b336216240] video:1572KiB audio:0KiB subtitle:0KiB other streams:0KiB global headers:0KiB muxing overhead: 0.110487%\n",
      "frame=  223 fps=198 q=9.0 Lsize=    1574KiB time=00:00:07.43 bitrate=1734.8kbits/s speed= 6.6x elapsed=0:00:01.12    \n",
      "\n",
      "Running: ffmpeg -y -loop 1 -framerate 30 -t 10.4 -i temp_frames\\0006.jpg -vf setsar=1,scale=1920:1920,crop=1920:1080:x='0/2':y='floor(840*(0.5-0.5*cos(PI*n/312)))' -frames:v 312 -c:v h264_nvenc -preset p1 -pix_fmt yuv420p -vsync cfr -video_track_timescale 30 temp_clips/clip_6.mp4\n",
      "ffmpeg version 8.0.1-essentials_build-www.gyan.dev Copyright (c) 2000-2025 the FFmpeg developers\n",
      "  built with gcc 15.2.0 (Rev8, Built by MSYS2 project)\n",
      "  configuration: --enable-gpl --enable-version3 --enable-static --disable-w32threads --disable-autodetect --enable-fontconfig --enable-iconv --enable-gnutls --enable-libxml2 --enable-gmp --enable-bzlib --enable-lzma --enable-zlib --enable-libsrt --enable-libssh --enable-libzmq --enable-avisynth --enable-sdl2 --enable-libwebp --enable-libx264 --enable-libx265 --enable-libxvid --enable-libaom --enable-libopenjpeg --enable-libvpx --enable-mediafoundation --enable-libass --enable-libfreetype --enable-libfribidi --enable-libharfbuzz --enable-libvidstab --enable-libvmaf --enable-libzimg --enable-amf --enable-cuda-llvm --enable-cuvid --enable-dxva2 --enable-d3d11va --enable-d3d12va --enable-ffnvcodec --enable-libvpl --enable-nvdec --enable-nvenc --enable-vaapi --enable-openal --enable-libgme --enable-libopenmpt --enable-libopencore-amrwb --enable-libmp3lame --enable-libtheora --enable-libvo-amrwbenc --enable-libgsm --enable-libopencore-amrnb --enable-libopus --enable-libspeex --enable-libvorbis --enable-librubberband\n",
      "  libavutil      60.  8.100 / 60.  8.100\n",
      "  libavcodec     62. 11.100 / 62. 11.100\n",
      "  libavformat    62.  3.100 / 62.  3.100\n",
      "  libavdevice    62.  1.100 / 62.  1.100\n",
      "  libavfilter    11.  4.100 / 11.  4.100\n",
      "  libswscale      9.  1.100 /  9.  1.100\n",
      "  libswresample   6.  1.100 /  6.  1.100\n",
      "-vsync is deprecated. Use -fps_mode\n",
      "Input #0, image2, from 'temp_frames\\0006.jpg':\n",
      "  Duration: 00:00:00.03, start: 0.000000, bitrate: 49844 kb/s\n",
      "  Stream #0:0: Video: mjpeg (Baseline), yuvj420p(pc, bt470bg/unknown/unknown), 960x960 [SAR 1:1 DAR 1:1], 30 fps, 30 tbr, 30 tbn\n",
      "Stream mapping:\n",
      "  Stream #0:0 -> #0:0 (mjpeg (native) -> h264 (h264_nvenc))\n",
      "Press [q] to stop, [?] for help\n",
      "[swscaler @ 00000237037e9040] deprecated pixel format used, make sure you did set range correctly\n",
      "Output #0, mp4, to 'temp_clips/clip_6.mp4':\n",
      "  Metadata:\n",
      "    encoder         : Lavf62.3.100\n",
      "  Stream #0:0: Video: h264 (Main) (avc1 / 0x31637661), yuv420p(pc, bt470bg/unknown/unknown, progressive), 1920x1080 [SAR 1:1 DAR 16:9], q=2-31, 2000 kb/s, 30 fps, 30 tbn\n",
      "    Metadata:\n",
      "      encoder         : Lavc62.11.100 h264_nvenc\n",
      "    Side data:\n",
      "      cpb: bitrate max/min/avg: 0/0/2000000 buffer size: 4000000 vbv_delay: N/A\n",
      "frame=   64 fps=0.0 q=11.0 size=     256KiB time=00:00:02.13 bitrate= 983.2kbits/s speed=4.23x elapsed=0:00:00.50    \n",
      "frame=  186 fps=183 q=8.0 size=    1024KiB time=00:00:06.20 bitrate=1353.1kbits/s speed=6.11x elapsed=0:00:01.01    \n",
      "frame=  309 fps=201 q=8.0 size=    1792KiB time=00:00:10.30 bitrate=1425.3kbits/s speed=6.71x elapsed=0:00:01.53    \n",
      "[out#0/mp4 @ 00000237037bc980] video:1926KiB audio:0KiB subtitle:0KiB other streams:0KiB global headers:0KiB muxing overhead: 0.108227%\n",
      "frame=  312 fps=201 q=8.0 Lsize=    1929KiB time=00:00:10.40 bitrate=1519.1kbits/s speed=6.71x elapsed=0:00:01.55    \n",
      "\n",
      "Running: ffmpeg -y -loop 1 -framerate 30 -t 4.64 -i temp_frames\\0007.jpg -vf setsar=1,scale=1920:1280,crop=1920:1080:x='0/2':y='floor(200*(0.5-0.5*cos(PI*n/139)))' -frames:v 139 -c:v h264_nvenc -preset p1 -pix_fmt yuv420p -vsync cfr -video_track_timescale 30 temp_clips/clip_7.mp4\n",
      "ffmpeg version 8.0.1-essentials_build-www.gyan.dev Copyright (c) 2000-2025 the FFmpeg developers\n",
      "  built with gcc 15.2.0 (Rev8, Built by MSYS2 project)\n",
      "  configuration: --enable-gpl --enable-version3 --enable-static --disable-w32threads --disable-autodetect --enable-fontconfig --enable-iconv --enable-gnutls --enable-libxml2 --enable-gmp --enable-bzlib --enable-lzma --enable-zlib --enable-libsrt --enable-libssh --enable-libzmq --enable-avisynth --enable-sdl2 --enable-libwebp --enable-libx264 --enable-libx265 --enable-libxvid --enable-libaom --enable-libopenjpeg --enable-libvpx --enable-mediafoundation --enable-libass --enable-libfreetype --enable-libfribidi --enable-libharfbuzz --enable-libvidstab --enable-libvmaf --enable-libzimg --enable-amf --enable-cuda-llvm --enable-cuvid --enable-dxva2 --enable-d3d11va --enable-d3d12va --enable-ffnvcodec --enable-libvpl --enable-nvdec --enable-nvenc --enable-vaapi --enable-openal --enable-libgme --enable-libopenmpt --enable-libopencore-amrwb --enable-libmp3lame --enable-libtheora --enable-libvo-amrwbenc --enable-libgsm --enable-libopencore-amrnb --enable-libopus --enable-libspeex --enable-libvorbis --enable-librubberband\n",
      "  libavutil      60.  8.100 / 60.  8.100\n",
      "  libavcodec     62. 11.100 / 62. 11.100\n",
      "  libavformat    62.  3.100 / 62.  3.100\n",
      "  libavdevice    62.  1.100 / 62.  1.100\n",
      "  libavfilter    11.  4.100 / 11.  4.100\n",
      "  libswscale      9.  1.100 /  9.  1.100\n",
      "  libswresample   6.  1.100 /  6.  1.100\n",
      "-vsync is deprecated. Use -fps_mode\n",
      "Input #0, image2, from 'temp_frames\\0007.jpg':\n",
      "  Duration: 00:00:00.03, start: 0.000000, bitrate: 51630 kb/s\n",
      "  Stream #0:0: Video: mjpeg (Baseline), yuvj420p(pc, bt470bg/unknown/unknown), 1000x667 [SAR 1:1 DAR 1000:667], 30 fps, 30 tbr, 30 tbn\n",
      "Stream mapping:\n",
      "  Stream #0:0 -> #0:0 (mjpeg (native) -> h264 (h264_nvenc))\n",
      "Press [q] to stop, [?] for help\n",
      "[swscaler @ 000001e2fcff1080] deprecated pixel format used, make sure you did set range correctly\n",
      "Output #0, mp4, to 'temp_clips/clip_7.mp4':\n",
      "  Metadata:\n",
      "    encoder         : Lavf62.3.100\n",
      "  Stream #0:0: Video: h264 (Main) (avc1 / 0x31637661), yuv420p(pc, bt470bg/unknown/unknown, progressive), 1920x1080 [SAR 2000:2001 DAR 32000:18009], q=2-31, 2000 kb/s, 30 fps, 30 tbn\n",
      "    Metadata:\n",
      "      encoder         : Lavc62.11.100 h264_nvenc\n",
      "    Side data:\n",
      "      cpb: bitrate max/min/avg: 0/0/2000000 buffer size: 4000000 vbv_delay: N/A\n",
      "frame=   60 fps=0.0 q=11.0 size=     512KiB time=00:00:02.00 bitrate=2097.3kbits/s speed=3.88x elapsed=0:00:00.51    \n",
      "[out#0/mp4 @ 000001e2fcf4c980] video:933KiB audio:0KiB subtitle:0KiB other streams:0KiB global headers:0KiB muxing overhead: 0.149302%\n",
      "frame=  139 fps=0.0 q=10.0 Lsize=     935KiB time=00:00:04.63 bitrate=1652.7kbits/s speed= 5.5x elapsed=0:00:00.84    \n",
      "\n",
      "Running: ffmpeg -y -loop 1 -framerate 30 -t 8.32 -i temp_frames\\0008.jpg -vf setsar=1,scale=1920:1284,crop=1920:1080:x='0/2':y='floor(204*(0.5-0.5*cos(PI*n/249)))' -frames:v 249 -c:v h264_nvenc -preset p1 -pix_fmt yuv420p -vsync cfr -video_track_timescale 30 temp_clips/clip_8.mp4\n",
      "ffmpeg version 8.0.1-essentials_build-www.gyan.dev Copyright (c) 2000-2025 the FFmpeg developers\n",
      "  built with gcc 15.2.0 (Rev8, Built by MSYS2 project)\n",
      "  configuration: --enable-gpl --enable-version3 --enable-static --disable-w32threads --disable-autodetect --enable-fontconfig --enable-iconv --enable-gnutls --enable-libxml2 --enable-gmp --enable-bzlib --enable-lzma --enable-zlib --enable-libsrt --enable-libssh --enable-libzmq --enable-avisynth --enable-sdl2 --enable-libwebp --enable-libx264 --enable-libx265 --enable-libxvid --enable-libaom --enable-libopenjpeg --enable-libvpx --enable-mediafoundation --enable-libass --enable-libfreetype --enable-libfribidi --enable-libharfbuzz --enable-libvidstab --enable-libvmaf --enable-libzimg --enable-amf --enable-cuda-llvm --enable-cuvid --enable-dxva2 --enable-d3d11va --enable-d3d12va --enable-ffnvcodec --enable-libvpl --enable-nvdec --enable-nvenc --enable-vaapi --enable-openal --enable-libgme --enable-libopenmpt --enable-libopencore-amrwb --enable-libmp3lame --enable-libtheora --enable-libvo-amrwbenc --enable-libgsm --enable-libopencore-amrnb --enable-libopus --enable-libspeex --enable-libvorbis --enable-librubberband\n",
      "  libavutil      60.  8.100 / 60.  8.100\n",
      "  libavcodec     62. 11.100 / 62. 11.100\n",
      "  libavformat    62.  3.100 / 62.  3.100\n",
      "  libavdevice    62.  1.100 / 62.  1.100\n",
      "  libavfilter    11.  4.100 / 11.  4.100\n",
      "  libswscale      9.  1.100 /  9.  1.100\n",
      "  libswresample   6.  1.100 /  6.  1.100\n",
      "-vsync is deprecated. Use -fps_mode\n",
      "Input #0, image2, from 'temp_frames\\0008.jpg':\n",
      "  Duration: 00:00:00.03, start: 0.000000, bitrate: 110048 kb/s\n",
      "  Stream #0:0: Video: mjpeg (Baseline), yuvj420p(pc, bt470bg/unknown/unknown), 1015x679 [SAR 1:1 DAR 145:97], 30 fps, 30 tbr, 30 tbn\n",
      "Stream mapping:\n",
      "  Stream #0:0 -> #0:0 (mjpeg (native) -> h264 (h264_nvenc))\n",
      "Press [q] to stop, [?] for help\n",
      "[swscaler @ 000001a9146b7fc0] deprecated pixel format used, make sure you did set range correctly\n",
      "Output #0, mp4, to 'temp_clips/clip_8.mp4':\n",
      "  Metadata:\n",
      "    encoder         : Lavf62.3.100\n",
      "  Stream #0:0: Video: h264 (Main) (avc1 / 0x31637661), yuv420p(pc, bt470bg/unknown/unknown, progressive), 1920x1080 [SAR 3103:3104 DAR 3103:1746], q=2-31, 2000 kb/s, 30 fps, 30 tbn\n",
      "    Metadata:\n",
      "      encoder         : Lavc62.11.100 h264_nvenc\n",
      "    Side data:\n",
      "      cpb: bitrate max/min/avg: 0/0/2000000 buffer size: 4000000 vbv_delay: N/A\n",
      "frame=   53 fps=0.0 q=26.0 size=     256KiB time=00:00:01.76 bitrate=1187.3kbits/s speed=3.44x elapsed=0:00:00.51    \n",
      "frame=  132 fps=128 q=14.0 size=    1024KiB time=00:00:04.40 bitrate=1906.6kbits/s speed=4.28x elapsed=0:00:01.02    \n",
      "frame=  208 fps=134 q=12.0 size=    1280KiB time=00:00:06.93 bitrate=1512.4kbits/s speed=4.48x elapsed=0:00:01.54    \n",
      "[out#0/mp4 @ 000001a91407c980] video:1669KiB audio:0KiB subtitle:0KiB other streams:0KiB global headers:0KiB muxing overhead: 0.110179%\n",
      "frame=  249 fps=134 q=10.0 Lsize=    1671KiB time=00:00:08.30 bitrate=1649.1kbits/s speed=4.48x elapsed=0:00:01.85    \n",
      "\n",
      "Running: ffmpeg -y -f concat -safe 0 -i Outputs/concat_list.txt -c copy Outputs/combined.mp4\n",
      "ffmpeg version 8.0.1-essentials_build-www.gyan.dev Copyright (c) 2000-2025 the FFmpeg developers\n",
      "  built with gcc 15.2.0 (Rev8, Built by MSYS2 project)\n",
      "  configuration: --enable-gpl --enable-version3 --enable-static --disable-w32threads --disable-autodetect --enable-fontconfig --enable-iconv --enable-gnutls --enable-libxml2 --enable-gmp --enable-bzlib --enable-lzma --enable-zlib --enable-libsrt --enable-libssh --enable-libzmq --enable-avisynth --enable-sdl2 --enable-libwebp --enable-libx264 --enable-libx265 --enable-libxvid --enable-libaom --enable-libopenjpeg --enable-libvpx --enable-mediafoundation --enable-libass --enable-libfreetype --enable-libfribidi --enable-libharfbuzz --enable-libvidstab --enable-libvmaf --enable-libzimg --enable-amf --enable-cuda-llvm --enable-cuvid --enable-dxva2 --enable-d3d11va --enable-d3d12va --enable-ffnvcodec --enable-libvpl --enable-nvdec --enable-nvenc --enable-vaapi --enable-openal --enable-libgme --enable-libopenmpt --enable-libopencore-amrwb --enable-libmp3lame --enable-libtheora --enable-libvo-amrwbenc --enable-libgsm --enable-libopencore-amrnb --enable-libopus --enable-libspeex --enable-libvorbis --enable-librubberband\n",
      "  libavutil      60.  8.100 / 60.  8.100\n",
      "  libavcodec     62. 11.100 / 62. 11.100\n",
      "  libavformat    62.  3.100 / 62.  3.100\n",
      "  libavdevice    62.  1.100 / 62.  1.100\n",
      "  libavfilter    11.  4.100 / 11.  4.100\n",
      "  libswscale      9.  1.100 /  9.  1.100\n",
      "  libswresample   6.  1.100 /  6.  1.100\n",
      "[mov,mp4,m4a,3gp,3g2,mj2 @ 00000211797946c0] Auto-inserting h264_mp4toannexb bitstream filter\n",
      "Input #0, concat, from 'Outputs/concat_list.txt':\n",
      "  Duration: N/A, start: 0.000000, bitrate: 408 kb/s\n",
      "  Stream #0:0(und): Video: h264 (Main) (avc1 / 0x31637661), yuvj420p(pc, bt470bg/unknown/unknown, progressive), 1920x1080 [SAR 2475:2476 DAR 1100:619], 408 kb/s, 30 fps, 30 tbr, 30 tbn\n",
      "    Metadata:\n",
      "      handler_name    : VideoHandler\n",
      "      vendor_id       : [0][0][0][0]\n",
      "      encoder         : Lavc62.11.100 h264_nvenc\n",
      "Stream mapping:\n",
      "  Stream #0:0 -> #0:0 (copy)\n",
      "Output #0, mp4, to 'Outputs/combined.mp4':\n",
      "  Metadata:\n",
      "    encoder         : Lavf62.3.100\n",
      "  Stream #0:0(und): Video: h264 (Main) (avc1 / 0x31637661), yuvj420p(pc, bt470bg/unknown/unknown, progressive), 1920x1080 [SAR 2475:2476 DAR 1100:619], q=2-31, 408 kb/s, 30 fps, 30 tbr, 15360 tbn\n",
      "    Metadata:\n",
      "      handler_name    : VideoHandler\n",
      "      vendor_id       : [0][0][0][0]\n",
      "      encoder         : Lavc62.11.100 h264_nvenc\n",
      "Press [q] to stop, [?] for help\n",
      "[mov,mp4,m4a,3gp,3g2,mj2 @ 0000021179a3ec80] Auto-inserting h264_mp4toannexb bitstream filter\n",
      "    Last message repeated 1 times\n",
      "[mov,mp4,m4a,3gp,3g2,mj2 @ 00000211797b26c0] Auto-inserting h264_mp4toannexb bitstream filter\n",
      "[mov,mp4,m4a,3gp,3g2,mj2 @ 0000021179a3ec80] Auto-inserting h264_mp4toannexb bitstream filter\n",
      "[mov,mp4,m4a,3gp,3g2,mj2 @ 00000211797b26c0] Auto-inserting h264_mp4toannexb bitstream filter\n",
      "    Last message repeated 2 times\n",
      "[mov,mp4,m4a,3gp,3g2,mj2 @ 0000021179a3d840] Auto-inserting h264_mp4toannexb bitstream filter\n",
      "[out#0/mp4 @ 00000211797857c0] video:14694KiB audio:0KiB subtitle:0KiB other streams:0KiB global headers:0KiB muxing overhead: 0.074885%\n",
      "frame= 2021 fps=0.0 q=-1.0 Lsize=   14705KiB time=00:01:07.36 bitrate=1788.2kbits/s speed= 288x elapsed=0:00:00.23    \n",
      "\n",
      "Running: ffmpeg -y -i Outputs/combined.mp4 -i Outputs/Final audio.wav -c copy -c:a aac Outputs/with_audio.mp4\n",
      "ffmpeg version 8.0.1-essentials_build-www.gyan.dev Copyright (c) 2000-2025 the FFmpeg developers\n",
      "  built with gcc 15.2.0 (Rev8, Built by MSYS2 project)\n",
      "  configuration: --enable-gpl --enable-version3 --enable-static --disable-w32threads --disable-autodetect --enable-fontconfig --enable-iconv --enable-gnutls --enable-libxml2 --enable-gmp --enable-bzlib --enable-lzma --enable-zlib --enable-libsrt --enable-libssh --enable-libzmq --enable-avisynth --enable-sdl2 --enable-libwebp --enable-libx264 --enable-libx265 --enable-libxvid --enable-libaom --enable-libopenjpeg --enable-libvpx --enable-mediafoundation --enable-libass --enable-libfreetype --enable-libfribidi --enable-libharfbuzz --enable-libvidstab --enable-libvmaf --enable-libzimg --enable-amf --enable-cuda-llvm --enable-cuvid --enable-dxva2 --enable-d3d11va --enable-d3d12va --enable-ffnvcodec --enable-libvpl --enable-nvdec --enable-nvenc --enable-vaapi --enable-openal --enable-libgme --enable-libopenmpt --enable-libopencore-amrwb --enable-libmp3lame --enable-libtheora --enable-libvo-amrwbenc --enable-libgsm --enable-libopencore-amrnb --enable-libopus --enable-libspeex --enable-libvorbis --enable-librubberband\n",
      "  libavutil      60.  8.100 / 60.  8.100\n",
      "  libavcodec     62. 11.100 / 62. 11.100\n",
      "  libavformat    62.  3.100 / 62.  3.100\n",
      "  libavdevice    62.  1.100 / 62.  1.100\n",
      "  libavfilter    11.  4.100 / 11.  4.100\n",
      "  libswscale      9.  1.100 /  9.  1.100\n",
      "  libswresample   6.  1.100 /  6.  1.100\n",
      "Input #0, mov,mp4,m4a,3gp,3g2,mj2, from 'Outputs/combined.mp4':\n",
      "  Metadata:\n",
      "    major_brand     : isom\n",
      "    minor_version   : 512\n",
      "    compatible_brands: isomiso2avc1mp41\n",
      "    encoder         : Lavf62.3.100\n",
      "  Duration: 00:01:07.37, start: 0.000000, bitrate: 1788 kb/s\n",
      "  Stream #0:0[0x1](und): Video: h264 (Main) (avc1 / 0x31637661), yuvj420p(pc, bt470bg/unknown/unknown, progressive), 1920x1080 [SAR 2475:2476 DAR 1100:619], 1787 kb/s, 30 fps, 30 tbr, 15360 tbn (default)\n",
      "    Metadata:\n",
      "      handler_name    : VideoHandler\n",
      "      vendor_id       : [0][0][0][0]\n",
      "      encoder         : Lavc62.11.100 h264_nvenc\n",
      "[aist#1:0/pcm_s16le @ 00000278a6b5ccc0] Guessed Channel Layout: mono\n",
      "Input #1, wav, from 'Outputs/Final audio.wav':\n",
      "  Duration: 00:01:07.44, bitrate: 384 kb/s\n",
      "  Stream #1:0: Audio: pcm_s16le ([1][0][0][0] / 0x0001), 24000 Hz, mono, s16, 384 kb/s\n",
      "[aost#0:1 @ 00000278a6b59c00] Multiple -codec/-c/-acodec/-vcodec/-scodec/-dcodec options specified for stream 1, only the last option '-codec:a aac' will be used.\n",
      "Stream mapping:\n",
      "  Stream #0:0 -> #0:0 (copy)\n",
      "  Stream #1:0 -> #0:1 (pcm_s16le (native) -> aac (native))\n",
      "Press [q] to stop, [?] for help\n",
      "Output #0, mp4, to 'Outputs/with_audio.mp4':\n",
      "  Metadata:\n",
      "    major_brand     : isom\n",
      "    minor_version   : 512\n",
      "    compatible_brands: isomiso2avc1mp41\n",
      "    encoder         : Lavf62.3.100\n",
      "  Stream #0:0(und): Video: h264 (Main) (avc1 / 0x31637661), yuvj420p(pc, bt470bg/unknown/unknown, progressive), 1920x1080 [SAR 2475:2476 DAR 1100:619], q=2-31, 1787 kb/s, 30 fps, 30 tbr, 15360 tbn (default)\n",
      "    Metadata:\n",
      "      handler_name    : VideoHandler\n",
      "      vendor_id       : [0][0][0][0]\n",
      "      encoder         : Lavc62.11.100 h264_nvenc\n",
      "  Stream #0:1: Audio: aac (LC) (mp4a / 0x6134706D), 24000 Hz, mono, fltp, 69 kb/s\n",
      "    Metadata:\n",
      "      encoder         : Lavc62.11.100 aac\n",
      "frame=  897 fps=0.0 q=-1.0 size=    6656KiB time=00:00:29.78 bitrate=1830.9kbits/s speed=58.3x elapsed=0:00:00.51    \n",
      "frame= 1875 fps=1822 q=-1.0 size=   14336KiB time=00:01:02.37 bitrate=1882.7kbits/s speed=60.6x elapsed=0:00:01.02    \n",
      "[out#0/mp4 @ 00000278a6b951c0] video:14696KiB audio:623KiB subtitle:0KiB other streams:0KiB global headers:0KiB muxing overhead: 0.249435%\n",
      "frame= 2021 fps=1849 q=-1.0 Lsize=   15357KiB time=00:01:07.36 bitrate=1867.5kbits/s speed=61.6x elapsed=0:00:01.09    \n",
      "[aac @ 00000278a70100c0] Qavg: 469.157\n",
      "\n",
      "Running: ffmpeg -y -fflags +genpts -i Outputs/with_audio.mp4 -vf subtitles=Outputs/output_subtitles.srt -c:v h264_nvenc -preset p1 -pix_fmt yuv420p -fps_mode cfr -c:a copy Outputs/final_video.mp4\n",
      "ffmpeg version 8.0.1-essentials_build-www.gyan.dev Copyright (c) 2000-2025 the FFmpeg developers\n",
      "  built with gcc 15.2.0 (Rev8, Built by MSYS2 project)\n",
      "  configuration: --enable-gpl --enable-version3 --enable-static --disable-w32threads --disable-autodetect --enable-fontconfig --enable-iconv --enable-gnutls --enable-libxml2 --enable-gmp --enable-bzlib --enable-lzma --enable-zlib --enable-libsrt --enable-libssh --enable-libzmq --enable-avisynth --enable-sdl2 --enable-libwebp --enable-libx264 --enable-libx265 --enable-libxvid --enable-libaom --enable-libopenjpeg --enable-libvpx --enable-mediafoundation --enable-libass --enable-libfreetype --enable-libfribidi --enable-libharfbuzz --enable-libvidstab --enable-libvmaf --enable-libzimg --enable-amf --enable-cuda-llvm --enable-cuvid --enable-dxva2 --enable-d3d11va --enable-d3d12va --enable-ffnvcodec --enable-libvpl --enable-nvdec --enable-nvenc --enable-vaapi --enable-openal --enable-libgme --enable-libopenmpt --enable-libopencore-amrwb --enable-libmp3lame --enable-libtheora --enable-libvo-amrwbenc --enable-libgsm --enable-libopencore-amrnb --enable-libopus --enable-libspeex --enable-libvorbis --enable-librubberband\n",
      "  libavutil      60.  8.100 / 60.  8.100\n",
      "  libavcodec     62. 11.100 / 62. 11.100\n",
      "  libavformat    62.  3.100 / 62.  3.100\n",
      "  libavdevice    62.  1.100 / 62.  1.100\n",
      "  libavfilter    11.  4.100 / 11.  4.100\n",
      "  libswscale      9.  1.100 /  9.  1.100\n",
      "  libswresample   6.  1.100 /  6.  1.100\n",
      "Input #0, mov,mp4,m4a,3gp,3g2,mj2, from 'Outputs/with_audio.mp4':\n",
      "  Metadata:\n",
      "    major_brand     : isom\n",
      "    minor_version   : 512\n",
      "    compatible_brands: isomiso2avc1mp41\n",
      "    encoder         : Lavf62.3.100\n",
      "  Duration: 00:01:07.44, start: 0.000000, bitrate: 1865 kb/s\n",
      "  Stream #0:0[0x1](und): Video: h264 (Main) (avc1 / 0x31637661), yuvj420p(pc, bt470bg/unknown/unknown, progressive), 1920x1080 [SAR 2475:2476 DAR 1100:619], 1787 kb/s, 30 fps, 30 tbr, 15360 tbn (default)\n",
      "    Metadata:\n",
      "      handler_name    : VideoHandler\n",
      "      vendor_id       : [0][0][0][0]\n",
      "      encoder         : Lavc62.11.100 h264_nvenc\n",
      "  Stream #0:1[0x2](und): Audio: aac (LC) (mp4a / 0x6134706D), 24000 Hz, mono, fltp, 75 kb/s (default)\n",
      "    Metadata:\n",
      "      handler_name    : SoundHandler\n",
      "      vendor_id       : [0][0][0][0]\n",
      "[Parsed_subtitles_0 @ 0000024e57e20600] libass API version: 0x1704000\n",
      "[Parsed_subtitles_0 @ 0000024e57e20600] libass source: commit: 0.17.4-16-ge60dddb7db62cc009175843bdb0b0dfedceebedb\n",
      "[Parsed_subtitles_0 @ 0000024e57e20600] Shaper: FriBidi 1.0.16 (SIMPLE) HarfBuzz-ng 12.2.0 (COMPLEX)\n",
      "[Parsed_subtitles_0 @ 0000024e57e20600] Using font provider directwrite (with GDI)\n",
      "Stream mapping:\n",
      "  Stream #0:0 -> #0:0 (h264 (native) -> h264 (h264_nvenc))\n",
      "  Stream #0:1 -> #0:1 (copy)\n",
      "Press [q] to stop, [?] for help\n",
      "[Parsed_subtitles_0 @ 0000024e57df4500] libass API version: 0x1704000\n",
      "[Parsed_subtitles_0 @ 0000024e57df4500] libass source: commit: 0.17.4-16-ge60dddb7db62cc009175843bdb0b0dfedceebedb\n",
      "[Parsed_subtitles_0 @ 0000024e57df4500] Shaper: FriBidi 1.0.16 (SIMPLE) HarfBuzz-ng 12.2.0 (COMPLEX)\n",
      "[Parsed_subtitles_0 @ 0000024e57df4500] Using font provider directwrite (with GDI)\n",
      "[Parsed_subtitles_0 @ 0000024e57df4500] fontselect: (Arial, 400, 0) -> ArialMT, 0, ArialMT\n",
      "[swscaler @ 0000024e626825c0] deprecated pixel format used, make sure you did set range correctly\n",
      "Output #0, mp4, to 'Outputs/final_video.mp4':\n",
      "  Metadata:\n",
      "    major_brand     : isom\n",
      "    minor_version   : 512\n",
      "    compatible_brands: isomiso2avc1mp41\n",
      "    encoder         : Lavf62.3.100\n",
      "  Stream #0:0(und): Video: h264 (Main) (avc1 / 0x31637661), yuv420p(pc, bt470bg/unknown/unknown, progressive), 1920x1080 [SAR 2475:2476 DAR 1100:619], q=2-31, 2000 kb/s, 30 fps, 15360 tbn (default)\n",
      "    Metadata:\n",
      "      encoder         : Lavc62.11.100 h264_nvenc\n",
      "      handler_name    : VideoHandler\n",
      "      vendor_id       : [0][0][0][0]\n",
      "    Side data:\n",
      "      cpb: bitrate max/min/avg: 0/0/2000000 buffer size: 4000000 vbv_delay: N/A\n",
      "  Stream #0:1(und): Audio: aac (LC) (mp4a / 0x6134706D), 24000 Hz, mono, fltp, 75 kb/s (default)\n",
      "    Metadata:\n",
      "      handler_name    : SoundHandler\n",
      "      vendor_id       : [0][0][0][0]\n",
      "frame=   66 fps=0.0 q=9.0 size=       0KiB time=00:00:02.20 bitrate=   0.2kbits/s speed=4.29x elapsed=0:00:00.51    \n",
      "frame=  259 fps=251 q=19.0 size=    2816KiB time=00:00:08.63 bitrate=2672.1kbits/s speed=8.35x elapsed=0:00:01.03    \n",
      "frame=  446 fps=288 q=17.0 size=    6144KiB time=00:00:14.86 bitrate=3385.6kbits/s speed=9.61x elapsed=0:00:01.54    \n",
      "frame=  602 fps=292 q=17.0 size=    7680KiB time=00:00:20.06 bitrate=3135.3kbits/s speed=9.74x elapsed=0:00:02.06    \n",
      "frame=  793 fps=308 q=30.0 size=    8960KiB time=00:00:26.43 bitrate=2776.8kbits/s speed=10.3x elapsed=0:00:02.57    \n",
      "frame= 1004 fps=324 q=32.0 size=   10752KiB time=00:00:33.46 bitrate=2631.9kbits/s speed=10.8x elapsed=0:00:03.09    \n",
      "frame= 1194 fps=331 q=17.0 size=   12288KiB time=00:00:39.80 bitrate=2529.2kbits/s speed=  11x elapsed=0:00:03.60    \n",
      "frame= 1414 fps=343 q=17.0 size=   14592KiB time=00:00:47.13 bitrate=2536.2kbits/s speed=11.4x elapsed=0:00:04.12    \n",
      "frame= 1621 fps=350 q=17.0 size=   16896KiB time=00:00:54.03 bitrate=2561.6kbits/s speed=11.7x elapsed=0:00:04.63    \n",
      "frame= 1839 fps=357 q=29.0 size=   19456KiB time=00:01:01.30 bitrate=2600.1kbits/s speed=11.9x elapsed=0:00:05.15    \n",
      "[out#0/mp4 @ 0000024e57da2dc0] video:20222KiB audio:623KiB subtitle:0KiB other streams:0KiB global headers:0KiB muxing overhead: 0.183256%\n",
      "frame= 2021 fps=357 q=28.0 Lsize=   20883KiB time=00:01:07.36 bitrate=2539.4kbits/s speed=11.9x elapsed=0:00:05.65    \n",
      "\n",
      "Done: Outputs/final_video.mp4\n"
     ]
    }
   ],
   "source": [
    "# 1. Generate Ken Burns clips\n",
    "clips = generate_all_clips(image_files, seconds_for_chunk)\n",
    "\n",
    "# 2. Concatenate\n",
    "concatenated = \"Outputs/combined.mp4\"\n",
    "concatenate_clips(clips, concatenated)\n",
    "\n",
    "# 3. Add audio\n",
    "with_audio = \"Outputs/with_audio.mp4\"\n",
    "add_audio(concatenated, \"Outputs/Final audio.wav\", with_audio)\n",
    "\n",
    "# 4. Add subtitles\n",
    "final_output = \"Outputs/final_video.mp4\"\n",
    "add_subtitles(with_audio, \"Outputs/output_subtitles.srt\", final_output)\n",
    "\n",
    "#cleanup_files()\n",
    "\n",
    "print(\"Done:\", final_output)"
   ]
  },
  {
   "cell_type": "code",
   "execution_count": 26,
   "id": "e0add6d6",
   "metadata": {},
   "outputs": [],
   "source": [
    "cleanup_files()"
   ]
  },
  {
   "cell_type": "code",
   "execution_count": null,
   "id": "30ff7b5e",
   "metadata": {},
   "outputs": [],
   "source": []
  }
 ],
 "metadata": {
  "kernelspec": {
   "display_name": "Python 3",
   "language": "python",
   "name": "python3"
  },
  "language_info": {
   "codemirror_mode": {
    "name": "ipython",
    "version": 3
   },
   "file_extension": ".py",
   "mimetype": "text/x-python",
   "name": "python",
   "nbconvert_exporter": "python",
   "pygments_lexer": "ipython3",
   "version": "3.11.9"
  }
 },
 "nbformat": 4,
 "nbformat_minor": 5
}
